%
M48
M72
T01C0.00600
T02C0.02000
%
T01
X15250Y20867
X23612Y28642
X24750Y16867
X25250Y13367
X25750Y10867
X29750Y12367
X31250Y14367
X32250Y16667
X34750Y16367
X37750Y11367
X47750Y20367
X53250Y19867
X55750Y33367
X53250Y35367
X56250Y37367
X53750Y38867
X56250Y40367
X54250Y42367
X56750Y43367
X58750Y47367
X60250Y53867
X53550Y59267
X52750Y56367
X49750Y57867
X46250Y58367
X43250Y58367
X40750Y56867
X38250Y57867
X35750Y58367
X33250Y57367
X30750Y57867
X28250Y58367
X25750Y58867
X23250Y56867
X20750Y57367
X17750Y58867
X15750Y56867
X12450Y57767
X9950Y52967
X9750Y48367
X9250Y45367
X9750Y42867
X10250Y40367
X12250Y38867
X10250Y37367
X12250Y35367
X10250Y33367
X11650Y31267
X5050Y53967
T02
X6612Y25642
X10112Y21642
X43250Y15367
X43250Y11367
X47250Y11367
M30
