G75*
%MOIN*%
%OFA0B0*%
%FSLAX25Y25*%
%IPPOS*%
%LPD*%
%AMOC8*
5,1,8,0,0,1.08239X$1,22.5*
%
%ADD10C,0.00405*%
%ADD11C,0.00413*%
%ADD12C,0.01800*%
%ADD13C,0.00500*%
%ADD14C,0.00800*%
%ADD15C,0.00300*%
%ADD16C,0.03200*%
%ADD17C,0.00600*%
D10*
X0025452Y0028165D02*
X0026548Y0028165D01*
X0026548Y0025569D01*
X0025452Y0025569D01*
X0025452Y0028165D01*
X0025452Y0025973D02*
X0026548Y0025973D01*
X0026548Y0026377D02*
X0025452Y0026377D01*
X0025452Y0026781D02*
X0026548Y0026781D01*
X0026548Y0027185D02*
X0025452Y0027185D01*
X0025452Y0027589D02*
X0026548Y0027589D01*
X0026548Y0027993D02*
X0025452Y0027993D01*
X0027952Y0028165D02*
X0029048Y0028165D01*
X0029048Y0025569D01*
X0027952Y0025569D01*
X0027952Y0028165D01*
X0027952Y0025973D02*
X0029048Y0025973D01*
X0029048Y0026377D02*
X0027952Y0026377D01*
X0027952Y0026781D02*
X0029048Y0026781D01*
X0029048Y0027185D02*
X0027952Y0027185D01*
X0027952Y0027589D02*
X0029048Y0027589D01*
X0029048Y0027993D02*
X0027952Y0027993D01*
X0030452Y0028165D02*
X0031548Y0028165D01*
X0031548Y0025569D01*
X0030452Y0025569D01*
X0030452Y0028165D01*
X0030452Y0025973D02*
X0031548Y0025973D01*
X0031548Y0026377D02*
X0030452Y0026377D01*
X0030452Y0026781D02*
X0031548Y0026781D01*
X0031548Y0027185D02*
X0030452Y0027185D01*
X0030452Y0027589D02*
X0031548Y0027589D01*
X0031548Y0027993D02*
X0030452Y0027993D01*
X0032952Y0028165D02*
X0034048Y0028165D01*
X0034048Y0025569D01*
X0032952Y0025569D01*
X0032952Y0028165D01*
X0032952Y0025973D02*
X0034048Y0025973D01*
X0034048Y0026377D02*
X0032952Y0026377D01*
X0032952Y0026781D02*
X0034048Y0026781D01*
X0034048Y0027185D02*
X0032952Y0027185D01*
X0032952Y0027589D02*
X0034048Y0027589D01*
X0034048Y0027993D02*
X0032952Y0027993D01*
X0035452Y0028165D02*
X0036548Y0028165D01*
X0036548Y0025569D01*
X0035452Y0025569D01*
X0035452Y0028165D01*
X0035452Y0025973D02*
X0036548Y0025973D01*
X0036548Y0026377D02*
X0035452Y0026377D01*
X0035452Y0026781D02*
X0036548Y0026781D01*
X0036548Y0027185D02*
X0035452Y0027185D01*
X0035452Y0027589D02*
X0036548Y0027589D01*
X0036548Y0027993D02*
X0035452Y0027993D01*
X0037952Y0028165D02*
X0039048Y0028165D01*
X0039048Y0025569D01*
X0037952Y0025569D01*
X0037952Y0028165D01*
X0037952Y0025973D02*
X0039048Y0025973D01*
X0039048Y0026377D02*
X0037952Y0026377D01*
X0037952Y0026781D02*
X0039048Y0026781D01*
X0039048Y0027185D02*
X0037952Y0027185D01*
X0037952Y0027589D02*
X0039048Y0027589D01*
X0039048Y0027993D02*
X0037952Y0027993D01*
X0037952Y0033165D02*
X0039048Y0033165D01*
X0039048Y0029569D01*
X0037952Y0029569D01*
X0037952Y0033165D01*
X0037952Y0029973D02*
X0039048Y0029973D01*
X0039048Y0030377D02*
X0037952Y0030377D01*
X0037952Y0030781D02*
X0039048Y0030781D01*
X0039048Y0031185D02*
X0037952Y0031185D01*
X0037952Y0031589D02*
X0039048Y0031589D01*
X0039048Y0031993D02*
X0037952Y0031993D01*
X0037952Y0032397D02*
X0039048Y0032397D01*
X0039048Y0032801D02*
X0037952Y0032801D01*
X0036548Y0033165D02*
X0035452Y0033165D01*
X0036548Y0033165D02*
X0036548Y0029569D01*
X0035452Y0029569D01*
X0035452Y0033165D01*
X0035452Y0029973D02*
X0036548Y0029973D01*
X0036548Y0030377D02*
X0035452Y0030377D01*
X0035452Y0030781D02*
X0036548Y0030781D01*
X0036548Y0031185D02*
X0035452Y0031185D01*
X0035452Y0031589D02*
X0036548Y0031589D01*
X0036548Y0031993D02*
X0035452Y0031993D01*
X0035452Y0032397D02*
X0036548Y0032397D01*
X0036548Y0032801D02*
X0035452Y0032801D01*
X0034048Y0033165D02*
X0032952Y0033165D01*
X0034048Y0033165D02*
X0034048Y0029569D01*
X0032952Y0029569D01*
X0032952Y0033165D01*
X0032952Y0029973D02*
X0034048Y0029973D01*
X0034048Y0030377D02*
X0032952Y0030377D01*
X0032952Y0030781D02*
X0034048Y0030781D01*
X0034048Y0031185D02*
X0032952Y0031185D01*
X0032952Y0031589D02*
X0034048Y0031589D01*
X0034048Y0031993D02*
X0032952Y0031993D01*
X0032952Y0032397D02*
X0034048Y0032397D01*
X0034048Y0032801D02*
X0032952Y0032801D01*
X0031548Y0033165D02*
X0030452Y0033165D01*
X0031548Y0033165D02*
X0031548Y0029569D01*
X0030452Y0029569D01*
X0030452Y0033165D01*
X0030452Y0029973D02*
X0031548Y0029973D01*
X0031548Y0030377D02*
X0030452Y0030377D01*
X0030452Y0030781D02*
X0031548Y0030781D01*
X0031548Y0031185D02*
X0030452Y0031185D01*
X0030452Y0031589D02*
X0031548Y0031589D01*
X0031548Y0031993D02*
X0030452Y0031993D01*
X0030452Y0032397D02*
X0031548Y0032397D01*
X0031548Y0032801D02*
X0030452Y0032801D01*
X0029048Y0033165D02*
X0027952Y0033165D01*
X0029048Y0033165D02*
X0029048Y0029569D01*
X0027952Y0029569D01*
X0027952Y0033165D01*
X0027952Y0029973D02*
X0029048Y0029973D01*
X0029048Y0030377D02*
X0027952Y0030377D01*
X0027952Y0030781D02*
X0029048Y0030781D01*
X0029048Y0031185D02*
X0027952Y0031185D01*
X0027952Y0031589D02*
X0029048Y0031589D01*
X0029048Y0031993D02*
X0027952Y0031993D01*
X0027952Y0032397D02*
X0029048Y0032397D01*
X0029048Y0032801D02*
X0027952Y0032801D01*
X0026548Y0033165D02*
X0025452Y0033165D01*
X0026548Y0033165D02*
X0026548Y0029569D01*
X0025452Y0029569D01*
X0025452Y0033165D01*
X0025452Y0029973D02*
X0026548Y0029973D01*
X0026548Y0030377D02*
X0025452Y0030377D01*
X0025452Y0030781D02*
X0026548Y0030781D01*
X0026548Y0031185D02*
X0025452Y0031185D01*
X0025452Y0031589D02*
X0026548Y0031589D01*
X0026548Y0031993D02*
X0025452Y0031993D01*
X0025452Y0032397D02*
X0026548Y0032397D01*
X0026548Y0032801D02*
X0025452Y0032801D01*
X0025452Y0046069D02*
X0026548Y0046069D01*
X0025452Y0046069D02*
X0025452Y0049665D01*
X0026548Y0049665D01*
X0026548Y0046069D01*
X0026548Y0046473D02*
X0025452Y0046473D01*
X0025452Y0046877D02*
X0026548Y0046877D01*
X0026548Y0047281D02*
X0025452Y0047281D01*
X0025452Y0047685D02*
X0026548Y0047685D01*
X0026548Y0048089D02*
X0025452Y0048089D01*
X0025452Y0048493D02*
X0026548Y0048493D01*
X0026548Y0048897D02*
X0025452Y0048897D01*
X0025452Y0049301D02*
X0026548Y0049301D01*
X0027952Y0046069D02*
X0029048Y0046069D01*
X0027952Y0046069D02*
X0027952Y0049665D01*
X0029048Y0049665D01*
X0029048Y0046069D01*
X0029048Y0046473D02*
X0027952Y0046473D01*
X0027952Y0046877D02*
X0029048Y0046877D01*
X0029048Y0047281D02*
X0027952Y0047281D01*
X0027952Y0047685D02*
X0029048Y0047685D01*
X0029048Y0048089D02*
X0027952Y0048089D01*
X0027952Y0048493D02*
X0029048Y0048493D01*
X0029048Y0048897D02*
X0027952Y0048897D01*
X0027952Y0049301D02*
X0029048Y0049301D01*
X0030452Y0046069D02*
X0031548Y0046069D01*
X0030452Y0046069D02*
X0030452Y0049665D01*
X0031548Y0049665D01*
X0031548Y0046069D01*
X0031548Y0046473D02*
X0030452Y0046473D01*
X0030452Y0046877D02*
X0031548Y0046877D01*
X0031548Y0047281D02*
X0030452Y0047281D01*
X0030452Y0047685D02*
X0031548Y0047685D01*
X0031548Y0048089D02*
X0030452Y0048089D01*
X0030452Y0048493D02*
X0031548Y0048493D01*
X0031548Y0048897D02*
X0030452Y0048897D01*
X0030452Y0049301D02*
X0031548Y0049301D01*
X0032952Y0046069D02*
X0034048Y0046069D01*
X0032952Y0046069D02*
X0032952Y0049665D01*
X0034048Y0049665D01*
X0034048Y0046069D01*
X0034048Y0046473D02*
X0032952Y0046473D01*
X0032952Y0046877D02*
X0034048Y0046877D01*
X0034048Y0047281D02*
X0032952Y0047281D01*
X0032952Y0047685D02*
X0034048Y0047685D01*
X0034048Y0048089D02*
X0032952Y0048089D01*
X0032952Y0048493D02*
X0034048Y0048493D01*
X0034048Y0048897D02*
X0032952Y0048897D01*
X0032952Y0049301D02*
X0034048Y0049301D01*
X0035452Y0046069D02*
X0036548Y0046069D01*
X0035452Y0046069D02*
X0035452Y0049665D01*
X0036548Y0049665D01*
X0036548Y0046069D01*
X0036548Y0046473D02*
X0035452Y0046473D01*
X0035452Y0046877D02*
X0036548Y0046877D01*
X0036548Y0047281D02*
X0035452Y0047281D01*
X0035452Y0047685D02*
X0036548Y0047685D01*
X0036548Y0048089D02*
X0035452Y0048089D01*
X0035452Y0048493D02*
X0036548Y0048493D01*
X0036548Y0048897D02*
X0035452Y0048897D01*
X0035452Y0049301D02*
X0036548Y0049301D01*
X0037952Y0046069D02*
X0039048Y0046069D01*
X0037952Y0046069D02*
X0037952Y0049665D01*
X0039048Y0049665D01*
X0039048Y0046069D01*
X0039048Y0046473D02*
X0037952Y0046473D01*
X0037952Y0046877D02*
X0039048Y0046877D01*
X0039048Y0047281D02*
X0037952Y0047281D01*
X0037952Y0047685D02*
X0039048Y0047685D01*
X0039048Y0048089D02*
X0037952Y0048089D01*
X0037952Y0048493D02*
X0039048Y0048493D01*
X0039048Y0048897D02*
X0037952Y0048897D01*
X0037952Y0049301D02*
X0039048Y0049301D01*
X0040452Y0046069D02*
X0041548Y0046069D01*
X0040452Y0046069D02*
X0040452Y0049665D01*
X0041548Y0049665D01*
X0041548Y0046069D01*
X0041548Y0046473D02*
X0040452Y0046473D01*
X0040452Y0046877D02*
X0041548Y0046877D01*
X0041548Y0047281D02*
X0040452Y0047281D01*
X0040452Y0047685D02*
X0041548Y0047685D01*
X0041548Y0048089D02*
X0040452Y0048089D01*
X0040452Y0048493D02*
X0041548Y0048493D01*
X0041548Y0048897D02*
X0040452Y0048897D01*
X0040452Y0049301D02*
X0041548Y0049301D01*
X0042952Y0046069D02*
X0044048Y0046069D01*
X0042952Y0046069D02*
X0042952Y0049665D01*
X0044048Y0049665D01*
X0044048Y0046069D01*
X0044048Y0046473D02*
X0042952Y0046473D01*
X0042952Y0046877D02*
X0044048Y0046877D01*
X0044048Y0047281D02*
X0042952Y0047281D01*
X0042952Y0047685D02*
X0044048Y0047685D01*
X0044048Y0048089D02*
X0042952Y0048089D01*
X0042952Y0048493D02*
X0044048Y0048493D01*
X0044048Y0048897D02*
X0042952Y0048897D01*
X0042952Y0049301D02*
X0044048Y0049301D01*
X0045452Y0046069D02*
X0046548Y0046069D01*
X0045452Y0046069D02*
X0045452Y0049665D01*
X0046548Y0049665D01*
X0046548Y0046069D01*
X0046548Y0046473D02*
X0045452Y0046473D01*
X0045452Y0046877D02*
X0046548Y0046877D01*
X0046548Y0047281D02*
X0045452Y0047281D01*
X0045452Y0047685D02*
X0046548Y0047685D01*
X0046548Y0048089D02*
X0045452Y0048089D01*
X0045452Y0048493D02*
X0046548Y0048493D01*
X0046548Y0048897D02*
X0045452Y0048897D01*
X0045452Y0049301D02*
X0046548Y0049301D01*
X0047952Y0046069D02*
X0049048Y0046069D01*
X0047952Y0046069D02*
X0047952Y0049665D01*
X0049048Y0049665D01*
X0049048Y0046069D01*
X0049048Y0046473D02*
X0047952Y0046473D01*
X0047952Y0046877D02*
X0049048Y0046877D01*
X0049048Y0047281D02*
X0047952Y0047281D01*
X0047952Y0047685D02*
X0049048Y0047685D01*
X0049048Y0048089D02*
X0047952Y0048089D01*
X0047952Y0048493D02*
X0049048Y0048493D01*
X0049048Y0048897D02*
X0047952Y0048897D01*
X0047952Y0049301D02*
X0049048Y0049301D01*
X0050452Y0046069D02*
X0051548Y0046069D01*
X0050452Y0046069D02*
X0050452Y0049665D01*
X0051548Y0049665D01*
X0051548Y0046069D01*
X0051548Y0046473D02*
X0050452Y0046473D01*
X0050452Y0046877D02*
X0051548Y0046877D01*
X0051548Y0047281D02*
X0050452Y0047281D01*
X0050452Y0047685D02*
X0051548Y0047685D01*
X0051548Y0048089D02*
X0050452Y0048089D01*
X0050452Y0048493D02*
X0051548Y0048493D01*
X0051548Y0048897D02*
X0050452Y0048897D01*
X0050452Y0049301D02*
X0051548Y0049301D01*
X0052952Y0046069D02*
X0054048Y0046069D01*
X0052952Y0046069D02*
X0052952Y0049665D01*
X0054048Y0049665D01*
X0054048Y0046069D01*
X0054048Y0046473D02*
X0052952Y0046473D01*
X0052952Y0046877D02*
X0054048Y0046877D01*
X0054048Y0047281D02*
X0052952Y0047281D01*
X0052952Y0047685D02*
X0054048Y0047685D01*
X0054048Y0048089D02*
X0052952Y0048089D01*
X0052952Y0048493D02*
X0054048Y0048493D01*
X0054048Y0048897D02*
X0052952Y0048897D01*
X0052952Y0049301D02*
X0054048Y0049301D01*
X0055452Y0046069D02*
X0056548Y0046069D01*
X0055452Y0046069D02*
X0055452Y0049665D01*
X0056548Y0049665D01*
X0056548Y0046069D01*
X0056548Y0046473D02*
X0055452Y0046473D01*
X0055452Y0046877D02*
X0056548Y0046877D01*
X0056548Y0047281D02*
X0055452Y0047281D01*
X0055452Y0047685D02*
X0056548Y0047685D01*
X0056548Y0048089D02*
X0055452Y0048089D01*
X0055452Y0048493D02*
X0056548Y0048493D01*
X0056548Y0048897D02*
X0055452Y0048897D01*
X0055452Y0049301D02*
X0056548Y0049301D01*
X0056548Y0051069D02*
X0055452Y0051069D01*
X0055452Y0053665D01*
X0056548Y0053665D01*
X0056548Y0051069D01*
X0056548Y0051473D02*
X0055452Y0051473D01*
X0055452Y0051877D02*
X0056548Y0051877D01*
X0056548Y0052281D02*
X0055452Y0052281D01*
X0055452Y0052685D02*
X0056548Y0052685D01*
X0056548Y0053089D02*
X0055452Y0053089D01*
X0055452Y0053493D02*
X0056548Y0053493D01*
X0054048Y0051069D02*
X0052952Y0051069D01*
X0052952Y0053665D01*
X0054048Y0053665D01*
X0054048Y0051069D01*
X0054048Y0051473D02*
X0052952Y0051473D01*
X0052952Y0051877D02*
X0054048Y0051877D01*
X0054048Y0052281D02*
X0052952Y0052281D01*
X0052952Y0052685D02*
X0054048Y0052685D01*
X0054048Y0053089D02*
X0052952Y0053089D01*
X0052952Y0053493D02*
X0054048Y0053493D01*
X0051548Y0051069D02*
X0050452Y0051069D01*
X0050452Y0053665D01*
X0051548Y0053665D01*
X0051548Y0051069D01*
X0051548Y0051473D02*
X0050452Y0051473D01*
X0050452Y0051877D02*
X0051548Y0051877D01*
X0051548Y0052281D02*
X0050452Y0052281D01*
X0050452Y0052685D02*
X0051548Y0052685D01*
X0051548Y0053089D02*
X0050452Y0053089D01*
X0050452Y0053493D02*
X0051548Y0053493D01*
X0049048Y0051069D02*
X0047952Y0051069D01*
X0047952Y0053665D01*
X0049048Y0053665D01*
X0049048Y0051069D01*
X0049048Y0051473D02*
X0047952Y0051473D01*
X0047952Y0051877D02*
X0049048Y0051877D01*
X0049048Y0052281D02*
X0047952Y0052281D01*
X0047952Y0052685D02*
X0049048Y0052685D01*
X0049048Y0053089D02*
X0047952Y0053089D01*
X0047952Y0053493D02*
X0049048Y0053493D01*
X0046548Y0051069D02*
X0045452Y0051069D01*
X0045452Y0053665D01*
X0046548Y0053665D01*
X0046548Y0051069D01*
X0046548Y0051473D02*
X0045452Y0051473D01*
X0045452Y0051877D02*
X0046548Y0051877D01*
X0046548Y0052281D02*
X0045452Y0052281D01*
X0045452Y0052685D02*
X0046548Y0052685D01*
X0046548Y0053089D02*
X0045452Y0053089D01*
X0045452Y0053493D02*
X0046548Y0053493D01*
X0044048Y0051069D02*
X0042952Y0051069D01*
X0042952Y0053665D01*
X0044048Y0053665D01*
X0044048Y0051069D01*
X0044048Y0051473D02*
X0042952Y0051473D01*
X0042952Y0051877D02*
X0044048Y0051877D01*
X0044048Y0052281D02*
X0042952Y0052281D01*
X0042952Y0052685D02*
X0044048Y0052685D01*
X0044048Y0053089D02*
X0042952Y0053089D01*
X0042952Y0053493D02*
X0044048Y0053493D01*
X0041548Y0051069D02*
X0040452Y0051069D01*
X0040452Y0053665D01*
X0041548Y0053665D01*
X0041548Y0051069D01*
X0041548Y0051473D02*
X0040452Y0051473D01*
X0040452Y0051877D02*
X0041548Y0051877D01*
X0041548Y0052281D02*
X0040452Y0052281D01*
X0040452Y0052685D02*
X0041548Y0052685D01*
X0041548Y0053089D02*
X0040452Y0053089D01*
X0040452Y0053493D02*
X0041548Y0053493D01*
X0039048Y0051069D02*
X0037952Y0051069D01*
X0037952Y0053665D01*
X0039048Y0053665D01*
X0039048Y0051069D01*
X0039048Y0051473D02*
X0037952Y0051473D01*
X0037952Y0051877D02*
X0039048Y0051877D01*
X0039048Y0052281D02*
X0037952Y0052281D01*
X0037952Y0052685D02*
X0039048Y0052685D01*
X0039048Y0053089D02*
X0037952Y0053089D01*
X0037952Y0053493D02*
X0039048Y0053493D01*
X0036548Y0051069D02*
X0035452Y0051069D01*
X0035452Y0053665D01*
X0036548Y0053665D01*
X0036548Y0051069D01*
X0036548Y0051473D02*
X0035452Y0051473D01*
X0035452Y0051877D02*
X0036548Y0051877D01*
X0036548Y0052281D02*
X0035452Y0052281D01*
X0035452Y0052685D02*
X0036548Y0052685D01*
X0036548Y0053089D02*
X0035452Y0053089D01*
X0035452Y0053493D02*
X0036548Y0053493D01*
X0034048Y0051069D02*
X0032952Y0051069D01*
X0032952Y0053665D01*
X0034048Y0053665D01*
X0034048Y0051069D01*
X0034048Y0051473D02*
X0032952Y0051473D01*
X0032952Y0051877D02*
X0034048Y0051877D01*
X0034048Y0052281D02*
X0032952Y0052281D01*
X0032952Y0052685D02*
X0034048Y0052685D01*
X0034048Y0053089D02*
X0032952Y0053089D01*
X0032952Y0053493D02*
X0034048Y0053493D01*
X0031548Y0051069D02*
X0030452Y0051069D01*
X0030452Y0053665D01*
X0031548Y0053665D01*
X0031548Y0051069D01*
X0031548Y0051473D02*
X0030452Y0051473D01*
X0030452Y0051877D02*
X0031548Y0051877D01*
X0031548Y0052281D02*
X0030452Y0052281D01*
X0030452Y0052685D02*
X0031548Y0052685D01*
X0031548Y0053089D02*
X0030452Y0053089D01*
X0030452Y0053493D02*
X0031548Y0053493D01*
X0029048Y0051069D02*
X0027952Y0051069D01*
X0027952Y0053665D01*
X0029048Y0053665D01*
X0029048Y0051069D01*
X0029048Y0051473D02*
X0027952Y0051473D01*
X0027952Y0051877D02*
X0029048Y0051877D01*
X0029048Y0052281D02*
X0027952Y0052281D01*
X0027952Y0052685D02*
X0029048Y0052685D01*
X0029048Y0053089D02*
X0027952Y0053089D01*
X0027952Y0053493D02*
X0029048Y0053493D01*
X0026548Y0051069D02*
X0025452Y0051069D01*
X0025452Y0053665D01*
X0026548Y0053665D01*
X0026548Y0051069D01*
X0026548Y0051473D02*
X0025452Y0051473D01*
X0025452Y0051877D02*
X0026548Y0051877D01*
X0026548Y0052281D02*
X0025452Y0052281D01*
X0025452Y0052685D02*
X0026548Y0052685D01*
X0026548Y0053089D02*
X0025452Y0053089D01*
X0025452Y0053493D02*
X0026548Y0053493D01*
X0024048Y0051069D02*
X0022952Y0051069D01*
X0022952Y0053665D01*
X0024048Y0053665D01*
X0024048Y0051069D01*
X0024048Y0051473D02*
X0022952Y0051473D01*
X0022952Y0051877D02*
X0024048Y0051877D01*
X0024048Y0052281D02*
X0022952Y0052281D01*
X0022952Y0052685D02*
X0024048Y0052685D01*
X0024048Y0053089D02*
X0022952Y0053089D01*
X0022952Y0053493D02*
X0024048Y0053493D01*
X0021548Y0051069D02*
X0020452Y0051069D01*
X0020452Y0053665D01*
X0021548Y0053665D01*
X0021548Y0051069D01*
X0021548Y0051473D02*
X0020452Y0051473D01*
X0020452Y0051877D02*
X0021548Y0051877D01*
X0021548Y0052281D02*
X0020452Y0052281D01*
X0020452Y0052685D02*
X0021548Y0052685D01*
X0021548Y0053089D02*
X0020452Y0053089D01*
X0020452Y0053493D02*
X0021548Y0053493D01*
X0019048Y0051069D02*
X0017952Y0051069D01*
X0017952Y0053665D01*
X0019048Y0053665D01*
X0019048Y0051069D01*
X0019048Y0051473D02*
X0017952Y0051473D01*
X0017952Y0051877D02*
X0019048Y0051877D01*
X0019048Y0052281D02*
X0017952Y0052281D01*
X0017952Y0052685D02*
X0019048Y0052685D01*
X0019048Y0053089D02*
X0017952Y0053089D01*
X0017952Y0053493D02*
X0019048Y0053493D01*
X0016548Y0051069D02*
X0015452Y0051069D01*
X0015452Y0053665D01*
X0016548Y0053665D01*
X0016548Y0051069D01*
X0016548Y0051473D02*
X0015452Y0051473D01*
X0015452Y0051877D02*
X0016548Y0051877D01*
X0016548Y0052281D02*
X0015452Y0052281D01*
X0015452Y0052685D02*
X0016548Y0052685D01*
X0016548Y0053089D02*
X0015452Y0053089D01*
X0015452Y0053493D02*
X0016548Y0053493D01*
X0014048Y0051069D02*
X0012952Y0051069D01*
X0012952Y0053665D01*
X0014048Y0053665D01*
X0014048Y0051069D01*
X0014048Y0051473D02*
X0012952Y0051473D01*
X0012952Y0051877D02*
X0014048Y0051877D01*
X0014048Y0052281D02*
X0012952Y0052281D01*
X0012952Y0052685D02*
X0014048Y0052685D01*
X0014048Y0053089D02*
X0012952Y0053089D01*
X0012952Y0053493D02*
X0014048Y0053493D01*
X0014048Y0046069D02*
X0012952Y0046069D01*
X0012952Y0049665D01*
X0014048Y0049665D01*
X0014048Y0046069D01*
X0014048Y0046473D02*
X0012952Y0046473D01*
X0012952Y0046877D02*
X0014048Y0046877D01*
X0014048Y0047281D02*
X0012952Y0047281D01*
X0012952Y0047685D02*
X0014048Y0047685D01*
X0014048Y0048089D02*
X0012952Y0048089D01*
X0012952Y0048493D02*
X0014048Y0048493D01*
X0014048Y0048897D02*
X0012952Y0048897D01*
X0012952Y0049301D02*
X0014048Y0049301D01*
X0015452Y0046069D02*
X0016548Y0046069D01*
X0015452Y0046069D02*
X0015452Y0049665D01*
X0016548Y0049665D01*
X0016548Y0046069D01*
X0016548Y0046473D02*
X0015452Y0046473D01*
X0015452Y0046877D02*
X0016548Y0046877D01*
X0016548Y0047281D02*
X0015452Y0047281D01*
X0015452Y0047685D02*
X0016548Y0047685D01*
X0016548Y0048089D02*
X0015452Y0048089D01*
X0015452Y0048493D02*
X0016548Y0048493D01*
X0016548Y0048897D02*
X0015452Y0048897D01*
X0015452Y0049301D02*
X0016548Y0049301D01*
X0017952Y0046069D02*
X0019048Y0046069D01*
X0017952Y0046069D02*
X0017952Y0049665D01*
X0019048Y0049665D01*
X0019048Y0046069D01*
X0019048Y0046473D02*
X0017952Y0046473D01*
X0017952Y0046877D02*
X0019048Y0046877D01*
X0019048Y0047281D02*
X0017952Y0047281D01*
X0017952Y0047685D02*
X0019048Y0047685D01*
X0019048Y0048089D02*
X0017952Y0048089D01*
X0017952Y0048493D02*
X0019048Y0048493D01*
X0019048Y0048897D02*
X0017952Y0048897D01*
X0017952Y0049301D02*
X0019048Y0049301D01*
X0020452Y0046069D02*
X0021548Y0046069D01*
X0020452Y0046069D02*
X0020452Y0049665D01*
X0021548Y0049665D01*
X0021548Y0046069D01*
X0021548Y0046473D02*
X0020452Y0046473D01*
X0020452Y0046877D02*
X0021548Y0046877D01*
X0021548Y0047281D02*
X0020452Y0047281D01*
X0020452Y0047685D02*
X0021548Y0047685D01*
X0021548Y0048089D02*
X0020452Y0048089D01*
X0020452Y0048493D02*
X0021548Y0048493D01*
X0021548Y0048897D02*
X0020452Y0048897D01*
X0020452Y0049301D02*
X0021548Y0049301D01*
X0022952Y0046069D02*
X0024048Y0046069D01*
X0022952Y0046069D02*
X0022952Y0049665D01*
X0024048Y0049665D01*
X0024048Y0046069D01*
X0024048Y0046473D02*
X0022952Y0046473D01*
X0022952Y0046877D02*
X0024048Y0046877D01*
X0024048Y0047281D02*
X0022952Y0047281D01*
X0022952Y0047685D02*
X0024048Y0047685D01*
X0024048Y0048089D02*
X0022952Y0048089D01*
X0022952Y0048493D02*
X0024048Y0048493D01*
X0024048Y0048897D02*
X0022952Y0048897D01*
X0022952Y0049301D02*
X0024048Y0049301D01*
D11*
X0016863Y0009102D02*
X0014519Y0009102D01*
X0014519Y0012232D01*
X0016863Y0012232D01*
X0016863Y0009102D01*
X0016863Y0009514D02*
X0014519Y0009514D01*
X0014519Y0009926D02*
X0016863Y0009926D01*
X0016863Y0010338D02*
X0014519Y0010338D01*
X0014519Y0010750D02*
X0016863Y0010750D01*
X0016863Y0011162D02*
X0014519Y0011162D01*
X0014519Y0011574D02*
X0016863Y0011574D01*
X0016863Y0011986D02*
X0014519Y0011986D01*
X0019637Y0009102D02*
X0021981Y0009102D01*
X0019637Y0009102D02*
X0019637Y0012232D01*
X0021981Y0012232D01*
X0021981Y0009102D01*
X0021981Y0009514D02*
X0019637Y0009514D01*
X0019637Y0009926D02*
X0021981Y0009926D01*
X0021981Y0010338D02*
X0019637Y0010338D01*
X0019637Y0010750D02*
X0021981Y0010750D01*
X0021981Y0011162D02*
X0019637Y0011162D01*
X0019637Y0011574D02*
X0021981Y0011574D01*
X0021981Y0011986D02*
X0019637Y0011986D01*
X0044315Y0026136D02*
X0044315Y0028480D01*
X0044315Y0026136D02*
X0041185Y0026136D01*
X0041185Y0028480D01*
X0044315Y0028480D01*
X0044315Y0026548D02*
X0041185Y0026548D01*
X0041185Y0026960D02*
X0044315Y0026960D01*
X0044315Y0027372D02*
X0041185Y0027372D01*
X0041185Y0027784D02*
X0044315Y0027784D01*
X0044315Y0028196D02*
X0041185Y0028196D01*
X0044315Y0031254D02*
X0044315Y0033598D01*
X0044315Y0031254D02*
X0041185Y0031254D01*
X0041185Y0033598D01*
X0044315Y0033598D01*
X0044315Y0031666D02*
X0041185Y0031666D01*
X0041185Y0032078D02*
X0044315Y0032078D01*
X0044315Y0032490D02*
X0041185Y0032490D01*
X0041185Y0032902D02*
X0044315Y0032902D01*
X0044315Y0033314D02*
X0041185Y0033314D01*
X0037981Y0035302D02*
X0035637Y0035302D01*
X0035637Y0038432D01*
X0037981Y0038432D01*
X0037981Y0035302D01*
X0037981Y0035714D02*
X0035637Y0035714D01*
X0035637Y0036126D02*
X0037981Y0036126D01*
X0037981Y0036538D02*
X0035637Y0036538D01*
X0035637Y0036950D02*
X0037981Y0036950D01*
X0037981Y0037362D02*
X0035637Y0037362D01*
X0035637Y0037774D02*
X0037981Y0037774D01*
X0037981Y0038186D02*
X0035637Y0038186D01*
X0032863Y0035302D02*
X0030519Y0035302D01*
X0030519Y0038432D01*
X0032863Y0038432D01*
X0032863Y0035302D01*
X0032863Y0035714D02*
X0030519Y0035714D01*
X0030519Y0036126D02*
X0032863Y0036126D01*
X0032863Y0036538D02*
X0030519Y0036538D01*
X0030519Y0036950D02*
X0032863Y0036950D01*
X0032863Y0037362D02*
X0030519Y0037362D01*
X0030519Y0037774D02*
X0032863Y0037774D01*
X0032863Y0038186D02*
X0030519Y0038186D01*
D12*
X0023612Y0028642D03*
X0015250Y0020867D03*
X0024750Y0016867D03*
X0025250Y0013367D03*
X0025750Y0010867D03*
X0029750Y0012367D03*
X0031250Y0014367D03*
X0032250Y0016667D03*
X0034750Y0016367D03*
X0037750Y0011367D03*
X0047750Y0020367D03*
X0053250Y0019867D03*
X0055750Y0033367D03*
X0053250Y0035367D03*
X0056250Y0037367D03*
X0053750Y0038867D03*
X0056250Y0040367D03*
X0054250Y0042367D03*
X0056750Y0043367D03*
X0058750Y0047367D03*
X0060250Y0053867D03*
X0053550Y0059267D03*
X0052750Y0056367D03*
X0049750Y0057867D03*
X0046250Y0058367D03*
X0043250Y0058367D03*
X0040750Y0056867D03*
X0038250Y0057867D03*
X0035750Y0058367D03*
X0033250Y0057367D03*
X0030750Y0057867D03*
X0028250Y0058367D03*
X0025750Y0058867D03*
X0023250Y0056867D03*
X0020750Y0057367D03*
X0017750Y0058867D03*
X0015750Y0056867D03*
X0012450Y0057767D03*
X0009950Y0052967D03*
X0009750Y0048367D03*
X0009250Y0045367D03*
X0009750Y0042867D03*
X0010250Y0040367D03*
X0012250Y0038867D03*
X0010250Y0037367D03*
X0012250Y0035367D03*
X0010250Y0033367D03*
X0011650Y0031267D03*
X0005050Y0053967D03*
D13*
X0004750Y0054367D01*
X0010250Y0050367D01*
X0012750Y0047867D01*
X0013500Y0047867D01*
X0016000Y0047867D02*
X0016250Y0044867D01*
X0016000Y0044867D02*
X0012250Y0044867D01*
X0009750Y0048367D01*
X0009250Y0045367D02*
X0011750Y0043867D01*
X0017250Y0043867D01*
X0018500Y0047867D01*
X0021000Y0047867D02*
X0018250Y0042867D01*
X0013795Y0042905D01*
X0009750Y0042867D01*
X0010250Y0040367D02*
X0018750Y0041867D01*
X0023250Y0046367D01*
X0023500Y0047867D01*
X0026000Y0047867D02*
X0025250Y0045867D01*
X0019250Y0040867D01*
X0012250Y0038867D01*
X0013250Y0037367D02*
X0010250Y0037367D01*
X0012250Y0035367D02*
X0022750Y0040367D01*
X0029750Y0045367D01*
X0031000Y0047867D01*
X0033500Y0047867D02*
X0032750Y0045867D01*
X0030250Y0044367D01*
X0022250Y0038367D01*
X0013805Y0033914D01*
X0010250Y0033367D01*
X0011650Y0031267D02*
X0006850Y0024767D01*
X0006550Y0025567D02*
X0005050Y0053967D01*
X0006550Y0055167D01*
X0009950Y0052967D02*
X0012900Y0052967D01*
X0013500Y0052367D01*
X0016000Y0052367D02*
X0012181Y0058313D01*
X0013550Y0060667D02*
X0009550Y0059667D01*
X0013550Y0060667D02*
X0021350Y0060967D01*
X0046850Y0060967D01*
X0053550Y0059267D01*
X0056000Y0052367D01*
X0053500Y0052367D02*
X0052750Y0056867D01*
X0049750Y0057867D02*
X0051000Y0052367D01*
X0048250Y0052367D02*
X0046250Y0058367D01*
X0043250Y0058367D02*
X0045750Y0054867D01*
X0046000Y0052367D01*
X0043750Y0052867D02*
X0043250Y0055367D01*
X0040750Y0055867D01*
X0040750Y0056867D01*
X0040250Y0054367D02*
X0040750Y0052367D01*
X0040250Y0054367D02*
X0038250Y0057867D01*
X0036000Y0058617D02*
X0035500Y0056367D01*
X0038500Y0052367D01*
X0036000Y0052367D02*
X0034750Y0056117D01*
X0033250Y0057367D01*
X0033250Y0055367D02*
X0031250Y0055367D01*
X0030750Y0057867D01*
X0028250Y0058367D02*
X0028250Y0056617D01*
X0031000Y0052367D01*
X0028500Y0052367D02*
X0026000Y0056617D01*
X0025750Y0058867D01*
X0023250Y0056867D02*
X0026000Y0053617D01*
X0026000Y0052367D01*
X0021250Y0053367D02*
X0017750Y0058867D01*
X0015750Y0056867D02*
X0018500Y0052367D01*
X0028500Y0047867D02*
X0027750Y0045367D01*
X0020250Y0040367D01*
X0013250Y0037367D01*
X0010750Y0040367D02*
X0010250Y0040367D01*
X0019250Y0029367D02*
X0019250Y0022367D01*
X0024750Y0016867D01*
X0026750Y0016367D02*
X0025250Y0014867D01*
X0016250Y0014867D01*
X0015250Y0015867D01*
X0015250Y0020867D01*
X0021250Y0023367D02*
X0026750Y0017867D01*
X0026750Y0016367D01*
X0028250Y0014367D02*
X0028750Y0012867D01*
X0029750Y0012367D01*
X0028750Y0010867D02*
X0026250Y0013367D01*
X0025250Y0013367D01*
X0019250Y0013367D01*
X0016560Y0010676D01*
X0015691Y0010667D01*
X0020809Y0010667D02*
X0023250Y0010867D01*
X0025750Y0010867D01*
X0027250Y0009567D01*
X0033250Y0009567D01*
X0038550Y0014867D01*
X0038550Y0021367D01*
X0037250Y0022867D01*
X0036000Y0022117D02*
X0037250Y0020867D01*
X0037250Y0015867D01*
X0032250Y0010867D01*
X0028750Y0010867D01*
X0028250Y0014367D02*
X0028250Y0019367D01*
X0029750Y0020867D01*
X0031000Y0020117D02*
X0029750Y0018867D01*
X0029750Y0015867D01*
X0031250Y0014367D01*
X0032250Y0016667D02*
X0033250Y0018367D01*
X0033250Y0026617D01*
X0033750Y0026617D01*
X0033500Y0026867D01*
X0031000Y0026867D02*
X0031000Y0020117D01*
X0036000Y0022117D02*
X0036000Y0026867D01*
X0038500Y0026867D02*
X0038500Y0024117D01*
X0040250Y0022367D01*
X0040250Y0013867D01*
X0037750Y0011367D01*
X0047750Y0020367D02*
X0052750Y0020367D01*
X0053250Y0019867D01*
X0042750Y0027308D02*
X0038559Y0027808D01*
X0038500Y0026867D02*
X0038750Y0026617D01*
X0038500Y0031367D02*
X0040559Y0033426D01*
X0042750Y0032426D01*
X0041750Y0036367D01*
X0038750Y0039367D01*
X0029250Y0039367D01*
X0029250Y0036867D01*
X0027250Y0034867D01*
X0024750Y0034867D01*
X0019250Y0029367D01*
X0021250Y0029367D02*
X0021250Y0023367D01*
X0024750Y0026867D02*
X0023612Y0028642D01*
X0024750Y0026867D02*
X0026000Y0026867D01*
X0025500Y0030867D02*
X0022750Y0030867D01*
X0021250Y0029367D01*
X0025500Y0030867D02*
X0026000Y0031367D01*
X0026000Y0033117D01*
X0032250Y0033867D02*
X0032191Y0036426D01*
X0033750Y0034367D02*
X0033750Y0031617D01*
X0033500Y0031367D02*
X0033250Y0030867D01*
X0033750Y0034367D02*
X0036250Y0036867D01*
X0036809Y0036867D01*
X0043250Y0043867D02*
X0052750Y0037367D01*
X0056250Y0037367D01*
X0053750Y0038867D02*
X0044750Y0044867D01*
X0043500Y0047867D01*
X0046000Y0047867D02*
X0046250Y0045367D01*
X0052250Y0041367D01*
X0056250Y0040367D01*
X0054250Y0042367D02*
X0052195Y0042756D01*
X0050250Y0044756D01*
X0048750Y0045867D01*
X0048500Y0047867D01*
X0051000Y0047867D02*
X0051669Y0045071D01*
X0056750Y0043367D01*
X0057750Y0044867D02*
X0055250Y0044867D01*
X0053500Y0047867D01*
X0056250Y0047867D02*
X0060250Y0053867D01*
X0058750Y0047367D02*
X0057750Y0044867D01*
X0053250Y0035367D02*
X0047250Y0039367D01*
X0040250Y0044367D01*
X0038500Y0047867D01*
X0036000Y0047867D02*
X0038250Y0044367D01*
X0052750Y0033367D01*
X0055750Y0033367D01*
X0043250Y0043867D02*
X0041000Y0047867D01*
X0043250Y0052867D02*
X0043750Y0052867D01*
X0033750Y0052617D02*
X0033250Y0055367D01*
X0033750Y0052617D02*
X0033500Y0052367D01*
D14*
X0009550Y0059667D02*
X0006550Y0055167D01*
D15*
X0026000Y0033117D02*
X0026000Y0031617D01*
X0029750Y0030867D02*
X0029750Y0020867D01*
X0034750Y0016367D02*
X0034750Y0030367D01*
X0034250Y0030867D01*
X0033250Y0030867D01*
X0033500Y0031367D02*
X0033750Y0031617D01*
X0036000Y0031367D02*
X0036750Y0031367D01*
X0037250Y0030867D01*
X0037250Y0022867D01*
X0038500Y0026867D02*
X0038559Y0027808D01*
X0033500Y0026867D02*
X0032250Y0028117D01*
X0032250Y0033867D01*
X0032191Y0036426D02*
X0031691Y0036867D01*
X0031000Y0031367D02*
X0030750Y0031367D01*
X0029750Y0030867D01*
X0055900Y0050517D02*
X0056000Y0050617D01*
X0056000Y0052367D01*
D16*
X0043250Y0015367D03*
X0043250Y0011367D03*
X0047250Y0011367D03*
X0010112Y0021642D03*
X0006612Y0025642D03*
D17*
X0023500Y0052367D02*
X0020500Y0057617D01*
M02*
