G75*
%MOIN*%
%OFA0B0*%
%FSLAX25Y25*%
%IPPOS*%
%LPD*%
%AMOC8*
5,1,8,0,0,1.08239X$1,22.5*
%
%ADD10C,0.00390*%
%ADD11C,0.00650*%
%ADD12C,0.00492*%
%ADD13C,0.02400*%
%ADD14C,0.03800*%
D10*
X0022196Y0026813D02*
X0041304Y0026813D01*
X0022196Y0026813D02*
X0022196Y0045921D01*
X0041304Y0045921D01*
X0041304Y0026813D01*
X0041304Y0027202D02*
X0022196Y0027202D01*
X0022196Y0027591D02*
X0041304Y0027591D01*
X0041304Y0027980D02*
X0022196Y0027980D01*
X0022196Y0028369D02*
X0041304Y0028369D01*
X0041304Y0028758D02*
X0022196Y0028758D01*
X0022196Y0029147D02*
X0041304Y0029147D01*
X0041304Y0029536D02*
X0022196Y0029536D01*
X0022196Y0029925D02*
X0041304Y0029925D01*
X0041304Y0030314D02*
X0022196Y0030314D01*
X0022196Y0030703D02*
X0041304Y0030703D01*
X0041304Y0031092D02*
X0022196Y0031092D01*
X0022196Y0031481D02*
X0041304Y0031481D01*
X0041304Y0031870D02*
X0022196Y0031870D01*
X0022196Y0032259D02*
X0041304Y0032259D01*
X0041304Y0032648D02*
X0022196Y0032648D01*
X0022196Y0033037D02*
X0041304Y0033037D01*
X0041304Y0033426D02*
X0022196Y0033426D01*
X0022196Y0033815D02*
X0041304Y0033815D01*
X0041304Y0034204D02*
X0022196Y0034204D01*
X0022196Y0034593D02*
X0041304Y0034593D01*
X0041304Y0034982D02*
X0022196Y0034982D01*
X0022196Y0035371D02*
X0041304Y0035371D01*
X0041304Y0035760D02*
X0022196Y0035760D01*
X0022196Y0036149D02*
X0041304Y0036149D01*
X0041304Y0036538D02*
X0022196Y0036538D01*
X0022196Y0036927D02*
X0041304Y0036927D01*
X0041304Y0037316D02*
X0022196Y0037316D01*
X0022196Y0037705D02*
X0041304Y0037705D01*
X0041304Y0038094D02*
X0022196Y0038094D01*
X0022196Y0038483D02*
X0041304Y0038483D01*
X0041304Y0038872D02*
X0022196Y0038872D01*
X0022196Y0039261D02*
X0041304Y0039261D01*
X0041304Y0039650D02*
X0022196Y0039650D01*
X0022196Y0040039D02*
X0041304Y0040039D01*
X0041304Y0040428D02*
X0022196Y0040428D01*
X0022196Y0040817D02*
X0041304Y0040817D01*
X0041304Y0041206D02*
X0022196Y0041206D01*
X0022196Y0041595D02*
X0041304Y0041595D01*
X0041304Y0041984D02*
X0022196Y0041984D01*
X0022196Y0042373D02*
X0041304Y0042373D01*
X0041304Y0042762D02*
X0022196Y0042762D01*
X0022196Y0043151D02*
X0041304Y0043151D01*
X0041304Y0043540D02*
X0022196Y0043540D01*
X0022196Y0043929D02*
X0041304Y0043929D01*
X0041304Y0044318D02*
X0022196Y0044318D01*
X0022196Y0044707D02*
X0041304Y0044707D01*
X0041304Y0045096D02*
X0022196Y0045096D01*
X0022196Y0045485D02*
X0041304Y0045485D01*
X0041304Y0045874D02*
X0022196Y0045874D01*
D11*
X0017551Y0044758D02*
X0014059Y0044758D01*
X0014059Y0045692D01*
X0017551Y0045692D01*
X0017551Y0044758D01*
X0017551Y0045407D02*
X0014059Y0045407D01*
X0014059Y0046726D02*
X0017551Y0046726D01*
X0014059Y0046726D02*
X0014059Y0047660D01*
X0017551Y0047660D01*
X0017551Y0046726D01*
X0017551Y0047375D02*
X0014059Y0047375D01*
X0014059Y0048695D02*
X0017551Y0048695D01*
X0014059Y0048695D02*
X0014059Y0049629D01*
X0017551Y0049629D01*
X0017551Y0048695D01*
X0017551Y0049344D02*
X0014059Y0049344D01*
X0019422Y0050566D02*
X0019422Y0054058D01*
X0019422Y0050566D02*
X0018488Y0050566D01*
X0018488Y0054058D01*
X0019422Y0054058D01*
X0019422Y0051215D02*
X0018488Y0051215D01*
X0018488Y0051864D02*
X0019422Y0051864D01*
X0019422Y0052513D02*
X0018488Y0052513D01*
X0018488Y0053162D02*
X0019422Y0053162D01*
X0019422Y0053811D02*
X0018488Y0053811D01*
X0021390Y0054058D02*
X0021390Y0050566D01*
X0020456Y0050566D01*
X0020456Y0054058D01*
X0021390Y0054058D01*
X0021390Y0051215D02*
X0020456Y0051215D01*
X0020456Y0051864D02*
X0021390Y0051864D01*
X0021390Y0052513D02*
X0020456Y0052513D01*
X0020456Y0053162D02*
X0021390Y0053162D01*
X0021390Y0053811D02*
X0020456Y0053811D01*
X0023359Y0054058D02*
X0023359Y0050566D01*
X0022425Y0050566D01*
X0022425Y0054058D01*
X0023359Y0054058D01*
X0023359Y0051215D02*
X0022425Y0051215D01*
X0022425Y0051864D02*
X0023359Y0051864D01*
X0023359Y0052513D02*
X0022425Y0052513D01*
X0022425Y0053162D02*
X0023359Y0053162D01*
X0023359Y0053811D02*
X0022425Y0053811D01*
X0025327Y0054058D02*
X0025327Y0050566D01*
X0024393Y0050566D01*
X0024393Y0054058D01*
X0025327Y0054058D01*
X0025327Y0051215D02*
X0024393Y0051215D01*
X0024393Y0051864D02*
X0025327Y0051864D01*
X0025327Y0052513D02*
X0024393Y0052513D01*
X0024393Y0053162D02*
X0025327Y0053162D01*
X0025327Y0053811D02*
X0024393Y0053811D01*
X0027296Y0054058D02*
X0027296Y0050566D01*
X0026362Y0050566D01*
X0026362Y0054058D01*
X0027296Y0054058D01*
X0027296Y0051215D02*
X0026362Y0051215D01*
X0026362Y0051864D02*
X0027296Y0051864D01*
X0027296Y0052513D02*
X0026362Y0052513D01*
X0026362Y0053162D02*
X0027296Y0053162D01*
X0027296Y0053811D02*
X0026362Y0053811D01*
X0029264Y0054058D02*
X0029264Y0050566D01*
X0028330Y0050566D01*
X0028330Y0054058D01*
X0029264Y0054058D01*
X0029264Y0051215D02*
X0028330Y0051215D01*
X0028330Y0051864D02*
X0029264Y0051864D01*
X0029264Y0052513D02*
X0028330Y0052513D01*
X0028330Y0053162D02*
X0029264Y0053162D01*
X0029264Y0053811D02*
X0028330Y0053811D01*
X0031233Y0054058D02*
X0031233Y0050566D01*
X0030299Y0050566D01*
X0030299Y0054058D01*
X0031233Y0054058D01*
X0031233Y0051215D02*
X0030299Y0051215D01*
X0030299Y0051864D02*
X0031233Y0051864D01*
X0031233Y0052513D02*
X0030299Y0052513D01*
X0030299Y0053162D02*
X0031233Y0053162D01*
X0031233Y0053811D02*
X0030299Y0053811D01*
X0033201Y0054058D02*
X0033201Y0050566D01*
X0032267Y0050566D01*
X0032267Y0054058D01*
X0033201Y0054058D01*
X0033201Y0051215D02*
X0032267Y0051215D01*
X0032267Y0051864D02*
X0033201Y0051864D01*
X0033201Y0052513D02*
X0032267Y0052513D01*
X0032267Y0053162D02*
X0033201Y0053162D01*
X0033201Y0053811D02*
X0032267Y0053811D01*
X0035170Y0054058D02*
X0035170Y0050566D01*
X0034236Y0050566D01*
X0034236Y0054058D01*
X0035170Y0054058D01*
X0035170Y0051215D02*
X0034236Y0051215D01*
X0034236Y0051864D02*
X0035170Y0051864D01*
X0035170Y0052513D02*
X0034236Y0052513D01*
X0034236Y0053162D02*
X0035170Y0053162D01*
X0035170Y0053811D02*
X0034236Y0053811D01*
X0037138Y0054058D02*
X0037138Y0050566D01*
X0036204Y0050566D01*
X0036204Y0054058D01*
X0037138Y0054058D01*
X0037138Y0051215D02*
X0036204Y0051215D01*
X0036204Y0051864D02*
X0037138Y0051864D01*
X0037138Y0052513D02*
X0036204Y0052513D01*
X0036204Y0053162D02*
X0037138Y0053162D01*
X0037138Y0053811D02*
X0036204Y0053811D01*
X0039107Y0054058D02*
X0039107Y0050566D01*
X0038173Y0050566D01*
X0038173Y0054058D01*
X0039107Y0054058D01*
X0039107Y0051215D02*
X0038173Y0051215D01*
X0038173Y0051864D02*
X0039107Y0051864D01*
X0039107Y0052513D02*
X0038173Y0052513D01*
X0038173Y0053162D02*
X0039107Y0053162D01*
X0039107Y0053811D02*
X0038173Y0053811D01*
X0041075Y0054058D02*
X0041075Y0050566D01*
X0040141Y0050566D01*
X0040141Y0054058D01*
X0041075Y0054058D01*
X0041075Y0051215D02*
X0040141Y0051215D01*
X0040141Y0051864D02*
X0041075Y0051864D01*
X0041075Y0052513D02*
X0040141Y0052513D01*
X0040141Y0053162D02*
X0041075Y0053162D01*
X0041075Y0053811D02*
X0040141Y0053811D01*
X0043044Y0054058D02*
X0043044Y0050566D01*
X0042110Y0050566D01*
X0042110Y0054058D01*
X0043044Y0054058D01*
X0043044Y0051215D02*
X0042110Y0051215D01*
X0042110Y0051864D02*
X0043044Y0051864D01*
X0043044Y0052513D02*
X0042110Y0052513D01*
X0042110Y0053162D02*
X0043044Y0053162D01*
X0043044Y0053811D02*
X0042110Y0053811D01*
X0045012Y0054058D02*
X0045012Y0050566D01*
X0044078Y0050566D01*
X0044078Y0054058D01*
X0045012Y0054058D01*
X0045012Y0051215D02*
X0044078Y0051215D01*
X0044078Y0051864D02*
X0045012Y0051864D01*
X0045012Y0052513D02*
X0044078Y0052513D01*
X0044078Y0053162D02*
X0045012Y0053162D01*
X0045012Y0053811D02*
X0044078Y0053811D01*
X0045949Y0048695D02*
X0049441Y0048695D01*
X0045949Y0048695D02*
X0045949Y0049629D01*
X0049441Y0049629D01*
X0049441Y0048695D01*
X0049441Y0049344D02*
X0045949Y0049344D01*
X0045949Y0046726D02*
X0049441Y0046726D01*
X0045949Y0046726D02*
X0045949Y0047660D01*
X0049441Y0047660D01*
X0049441Y0046726D01*
X0049441Y0047375D02*
X0045949Y0047375D01*
X0045949Y0044758D02*
X0049441Y0044758D01*
X0045949Y0044758D02*
X0045949Y0045692D01*
X0049441Y0045692D01*
X0049441Y0044758D01*
X0049441Y0045407D02*
X0045949Y0045407D01*
X0045949Y0042789D02*
X0049441Y0042789D01*
X0045949Y0042789D02*
X0045949Y0043723D01*
X0049441Y0043723D01*
X0049441Y0042789D01*
X0049441Y0043438D02*
X0045949Y0043438D01*
X0045949Y0040821D02*
X0049441Y0040821D01*
X0045949Y0040821D02*
X0045949Y0041755D01*
X0049441Y0041755D01*
X0049441Y0040821D01*
X0049441Y0041470D02*
X0045949Y0041470D01*
X0045949Y0038852D02*
X0049441Y0038852D01*
X0045949Y0038852D02*
X0045949Y0039786D01*
X0049441Y0039786D01*
X0049441Y0038852D01*
X0049441Y0039501D02*
X0045949Y0039501D01*
X0045949Y0036884D02*
X0049441Y0036884D01*
X0045949Y0036884D02*
X0045949Y0037818D01*
X0049441Y0037818D01*
X0049441Y0036884D01*
X0049441Y0037533D02*
X0045949Y0037533D01*
X0045949Y0034915D02*
X0049441Y0034915D01*
X0045949Y0034915D02*
X0045949Y0035849D01*
X0049441Y0035849D01*
X0049441Y0034915D01*
X0049441Y0035564D02*
X0045949Y0035564D01*
X0045949Y0032947D02*
X0049441Y0032947D01*
X0045949Y0032947D02*
X0045949Y0033881D01*
X0049441Y0033881D01*
X0049441Y0032947D01*
X0049441Y0033596D02*
X0045949Y0033596D01*
X0045949Y0030978D02*
X0049441Y0030978D01*
X0045949Y0030978D02*
X0045949Y0031912D01*
X0049441Y0031912D01*
X0049441Y0030978D01*
X0049441Y0031627D02*
X0045949Y0031627D01*
X0045949Y0029010D02*
X0049441Y0029010D01*
X0045949Y0029010D02*
X0045949Y0029944D01*
X0049441Y0029944D01*
X0049441Y0029010D01*
X0049441Y0029659D02*
X0045949Y0029659D01*
X0045949Y0027041D02*
X0049441Y0027041D01*
X0045949Y0027041D02*
X0045949Y0027975D01*
X0049441Y0027975D01*
X0049441Y0027041D01*
X0049441Y0027690D02*
X0045949Y0027690D01*
X0045949Y0025073D02*
X0049441Y0025073D01*
X0045949Y0025073D02*
X0045949Y0026007D01*
X0049441Y0026007D01*
X0049441Y0025073D01*
X0049441Y0025722D02*
X0045949Y0025722D01*
X0045949Y0023104D02*
X0049441Y0023104D01*
X0045949Y0023104D02*
X0045949Y0024038D01*
X0049441Y0024038D01*
X0049441Y0023104D01*
X0049441Y0023753D02*
X0045949Y0023753D01*
X0045012Y0022168D02*
X0045012Y0018676D01*
X0044078Y0018676D01*
X0044078Y0022168D01*
X0045012Y0022168D01*
X0045012Y0019325D02*
X0044078Y0019325D01*
X0044078Y0019974D02*
X0045012Y0019974D01*
X0045012Y0020623D02*
X0044078Y0020623D01*
X0044078Y0021272D02*
X0045012Y0021272D01*
X0045012Y0021921D02*
X0044078Y0021921D01*
X0043044Y0022168D02*
X0043044Y0018676D01*
X0042110Y0018676D01*
X0042110Y0022168D01*
X0043044Y0022168D01*
X0043044Y0019325D02*
X0042110Y0019325D01*
X0042110Y0019974D02*
X0043044Y0019974D01*
X0043044Y0020623D02*
X0042110Y0020623D01*
X0042110Y0021272D02*
X0043044Y0021272D01*
X0043044Y0021921D02*
X0042110Y0021921D01*
X0041075Y0022168D02*
X0041075Y0018676D01*
X0040141Y0018676D01*
X0040141Y0022168D01*
X0041075Y0022168D01*
X0041075Y0019325D02*
X0040141Y0019325D01*
X0040141Y0019974D02*
X0041075Y0019974D01*
X0041075Y0020623D02*
X0040141Y0020623D01*
X0040141Y0021272D02*
X0041075Y0021272D01*
X0041075Y0021921D02*
X0040141Y0021921D01*
X0039107Y0022168D02*
X0039107Y0018676D01*
X0038173Y0018676D01*
X0038173Y0022168D01*
X0039107Y0022168D01*
X0039107Y0019325D02*
X0038173Y0019325D01*
X0038173Y0019974D02*
X0039107Y0019974D01*
X0039107Y0020623D02*
X0038173Y0020623D01*
X0038173Y0021272D02*
X0039107Y0021272D01*
X0039107Y0021921D02*
X0038173Y0021921D01*
X0037138Y0022168D02*
X0037138Y0018676D01*
X0036204Y0018676D01*
X0036204Y0022168D01*
X0037138Y0022168D01*
X0037138Y0019325D02*
X0036204Y0019325D01*
X0036204Y0019974D02*
X0037138Y0019974D01*
X0037138Y0020623D02*
X0036204Y0020623D01*
X0036204Y0021272D02*
X0037138Y0021272D01*
X0037138Y0021921D02*
X0036204Y0021921D01*
X0035170Y0022168D02*
X0035170Y0018676D01*
X0034236Y0018676D01*
X0034236Y0022168D01*
X0035170Y0022168D01*
X0035170Y0019325D02*
X0034236Y0019325D01*
X0034236Y0019974D02*
X0035170Y0019974D01*
X0035170Y0020623D02*
X0034236Y0020623D01*
X0034236Y0021272D02*
X0035170Y0021272D01*
X0035170Y0021921D02*
X0034236Y0021921D01*
X0033201Y0022168D02*
X0033201Y0018676D01*
X0032267Y0018676D01*
X0032267Y0022168D01*
X0033201Y0022168D01*
X0033201Y0019325D02*
X0032267Y0019325D01*
X0032267Y0019974D02*
X0033201Y0019974D01*
X0033201Y0020623D02*
X0032267Y0020623D01*
X0032267Y0021272D02*
X0033201Y0021272D01*
X0033201Y0021921D02*
X0032267Y0021921D01*
X0031233Y0022168D02*
X0031233Y0018676D01*
X0030299Y0018676D01*
X0030299Y0022168D01*
X0031233Y0022168D01*
X0031233Y0019325D02*
X0030299Y0019325D01*
X0030299Y0019974D02*
X0031233Y0019974D01*
X0031233Y0020623D02*
X0030299Y0020623D01*
X0030299Y0021272D02*
X0031233Y0021272D01*
X0031233Y0021921D02*
X0030299Y0021921D01*
X0029264Y0022168D02*
X0029264Y0018676D01*
X0028330Y0018676D01*
X0028330Y0022168D01*
X0029264Y0022168D01*
X0029264Y0019325D02*
X0028330Y0019325D01*
X0028330Y0019974D02*
X0029264Y0019974D01*
X0029264Y0020623D02*
X0028330Y0020623D01*
X0028330Y0021272D02*
X0029264Y0021272D01*
X0029264Y0021921D02*
X0028330Y0021921D01*
X0027296Y0022168D02*
X0027296Y0018676D01*
X0026362Y0018676D01*
X0026362Y0022168D01*
X0027296Y0022168D01*
X0027296Y0019325D02*
X0026362Y0019325D01*
X0026362Y0019974D02*
X0027296Y0019974D01*
X0027296Y0020623D02*
X0026362Y0020623D01*
X0026362Y0021272D02*
X0027296Y0021272D01*
X0027296Y0021921D02*
X0026362Y0021921D01*
X0025327Y0022168D02*
X0025327Y0018676D01*
X0024393Y0018676D01*
X0024393Y0022168D01*
X0025327Y0022168D01*
X0025327Y0019325D02*
X0024393Y0019325D01*
X0024393Y0019974D02*
X0025327Y0019974D01*
X0025327Y0020623D02*
X0024393Y0020623D01*
X0024393Y0021272D02*
X0025327Y0021272D01*
X0025327Y0021921D02*
X0024393Y0021921D01*
X0023359Y0022168D02*
X0023359Y0018676D01*
X0022425Y0018676D01*
X0022425Y0022168D01*
X0023359Y0022168D01*
X0023359Y0019325D02*
X0022425Y0019325D01*
X0022425Y0019974D02*
X0023359Y0019974D01*
X0023359Y0020623D02*
X0022425Y0020623D01*
X0022425Y0021272D02*
X0023359Y0021272D01*
X0023359Y0021921D02*
X0022425Y0021921D01*
X0021390Y0022168D02*
X0021390Y0018676D01*
X0020456Y0018676D01*
X0020456Y0022168D01*
X0021390Y0022168D01*
X0021390Y0019325D02*
X0020456Y0019325D01*
X0020456Y0019974D02*
X0021390Y0019974D01*
X0021390Y0020623D02*
X0020456Y0020623D01*
X0020456Y0021272D02*
X0021390Y0021272D01*
X0021390Y0021921D02*
X0020456Y0021921D01*
X0019422Y0022168D02*
X0019422Y0018676D01*
X0018488Y0018676D01*
X0018488Y0022168D01*
X0019422Y0022168D01*
X0019422Y0019325D02*
X0018488Y0019325D01*
X0018488Y0019974D02*
X0019422Y0019974D01*
X0019422Y0020623D02*
X0018488Y0020623D01*
X0018488Y0021272D02*
X0019422Y0021272D01*
X0019422Y0021921D02*
X0018488Y0021921D01*
X0017551Y0023104D02*
X0014059Y0023104D01*
X0014059Y0024038D01*
X0017551Y0024038D01*
X0017551Y0023104D01*
X0017551Y0023753D02*
X0014059Y0023753D01*
X0014059Y0025073D02*
X0017551Y0025073D01*
X0014059Y0025073D02*
X0014059Y0026007D01*
X0017551Y0026007D01*
X0017551Y0025073D01*
X0017551Y0025722D02*
X0014059Y0025722D01*
X0014059Y0027041D02*
X0017551Y0027041D01*
X0014059Y0027041D02*
X0014059Y0027975D01*
X0017551Y0027975D01*
X0017551Y0027041D01*
X0017551Y0027690D02*
X0014059Y0027690D01*
X0014059Y0029010D02*
X0017551Y0029010D01*
X0014059Y0029010D02*
X0014059Y0029944D01*
X0017551Y0029944D01*
X0017551Y0029010D01*
X0017551Y0029659D02*
X0014059Y0029659D01*
X0014059Y0030978D02*
X0017551Y0030978D01*
X0014059Y0030978D02*
X0014059Y0031912D01*
X0017551Y0031912D01*
X0017551Y0030978D01*
X0017551Y0031627D02*
X0014059Y0031627D01*
X0014059Y0032947D02*
X0017551Y0032947D01*
X0014059Y0032947D02*
X0014059Y0033881D01*
X0017551Y0033881D01*
X0017551Y0032947D01*
X0017551Y0033596D02*
X0014059Y0033596D01*
X0014059Y0034915D02*
X0017551Y0034915D01*
X0014059Y0034915D02*
X0014059Y0035849D01*
X0017551Y0035849D01*
X0017551Y0034915D01*
X0017551Y0035564D02*
X0014059Y0035564D01*
X0014059Y0036884D02*
X0017551Y0036884D01*
X0014059Y0036884D02*
X0014059Y0037818D01*
X0017551Y0037818D01*
X0017551Y0036884D01*
X0017551Y0037533D02*
X0014059Y0037533D01*
X0014059Y0038852D02*
X0017551Y0038852D01*
X0014059Y0038852D02*
X0014059Y0039786D01*
X0017551Y0039786D01*
X0017551Y0038852D01*
X0017551Y0039501D02*
X0014059Y0039501D01*
X0014059Y0040821D02*
X0017551Y0040821D01*
X0014059Y0040821D02*
X0014059Y0041755D01*
X0017551Y0041755D01*
X0017551Y0040821D01*
X0017551Y0041470D02*
X0014059Y0041470D01*
X0014059Y0042789D02*
X0017551Y0042789D01*
X0014059Y0042789D02*
X0014059Y0043723D01*
X0017551Y0043723D01*
X0017551Y0042789D01*
X0017551Y0043438D02*
X0014059Y0043438D01*
D12*
X0046513Y0017877D02*
X0050263Y0017877D01*
X0050263Y0014857D01*
X0046513Y0014857D01*
X0046513Y0017877D01*
X0046513Y0015348D02*
X0050263Y0015348D01*
X0050263Y0015839D02*
X0046513Y0015839D01*
X0046513Y0016330D02*
X0050263Y0016330D01*
X0050263Y0016821D02*
X0046513Y0016821D01*
X0046513Y0017312D02*
X0050263Y0017312D01*
X0050263Y0017803D02*
X0046513Y0017803D01*
X0054260Y0021629D02*
X0054260Y0025379D01*
X0054260Y0021629D02*
X0051240Y0021629D01*
X0051240Y0025379D01*
X0054260Y0025379D01*
X0054260Y0022120D02*
X0051240Y0022120D01*
X0051240Y0022611D02*
X0054260Y0022611D01*
X0054260Y0023102D02*
X0051240Y0023102D01*
X0051240Y0023593D02*
X0054260Y0023593D01*
X0054260Y0024084D02*
X0051240Y0024084D01*
X0051240Y0024575D02*
X0054260Y0024575D01*
X0054260Y0025066D02*
X0051240Y0025066D01*
X0054260Y0026354D02*
X0054260Y0030104D01*
X0054260Y0026354D02*
X0051240Y0026354D01*
X0051240Y0030104D01*
X0054260Y0030104D01*
X0054260Y0026845D02*
X0051240Y0026845D01*
X0051240Y0027336D02*
X0054260Y0027336D01*
X0054260Y0027827D02*
X0051240Y0027827D01*
X0051240Y0028318D02*
X0054260Y0028318D01*
X0054260Y0028809D02*
X0051240Y0028809D01*
X0051240Y0029300D02*
X0054260Y0029300D01*
X0054260Y0029791D02*
X0051240Y0029791D01*
X0051237Y0017877D02*
X0054987Y0017877D01*
X0054987Y0014857D01*
X0051237Y0014857D01*
X0051237Y0017877D01*
X0051237Y0015348D02*
X0054987Y0015348D01*
X0054987Y0015839D02*
X0051237Y0015839D01*
X0051237Y0016330D02*
X0054987Y0016330D01*
X0054987Y0016821D02*
X0051237Y0016821D01*
X0051237Y0017312D02*
X0054987Y0017312D01*
X0054987Y0017803D02*
X0051237Y0017803D01*
D13*
X0015250Y0020867D03*
X0023612Y0028642D03*
X0024750Y0016867D03*
X0025250Y0013367D03*
X0025750Y0010867D03*
X0029750Y0012367D03*
X0031250Y0014367D03*
X0032250Y0016667D03*
X0034750Y0016367D03*
X0037750Y0011367D03*
X0047750Y0020367D03*
X0053250Y0019867D03*
X0055750Y0033367D03*
X0053250Y0035367D03*
X0056250Y0037367D03*
X0053750Y0038867D03*
X0056250Y0040367D03*
X0054250Y0042367D03*
X0056750Y0043367D03*
X0058750Y0047367D03*
X0060250Y0053867D03*
X0053550Y0059267D03*
X0052750Y0056367D03*
X0049750Y0057867D03*
X0046250Y0058367D03*
X0043250Y0058367D03*
X0040750Y0056867D03*
X0038250Y0057867D03*
X0035750Y0058367D03*
X0033250Y0057367D03*
X0030750Y0057867D03*
X0028250Y0058367D03*
X0025750Y0058867D03*
X0023250Y0056867D03*
X0020750Y0057367D03*
X0017750Y0058867D03*
X0015750Y0056867D03*
X0012450Y0057767D03*
X0009950Y0052967D03*
X0009750Y0048367D03*
X0009250Y0045367D03*
X0009750Y0042867D03*
X0010250Y0040367D03*
X0012250Y0038867D03*
X0010250Y0037367D03*
X0012250Y0035367D03*
X0010250Y0033367D03*
X0011650Y0031267D03*
X0005050Y0053967D03*
D14*
X0006612Y0025642D03*
X0010112Y0021642D03*
X0043250Y0015367D03*
X0043250Y0011367D03*
X0047250Y0011367D03*
M02*
