G75*
%MOIN*%
%OFA0B0*%
%FSLAX25Y25*%
%IPPOS*%
%LPD*%
%AMOC8*
5,1,8,0,0,1.08239X$1,22.5*
%
%ADD10C,0.00567*%
%ADD11C,0.00503*%
%ADD12C,0.02400*%
%ADD13C,0.03800*%
D10*
X0025233Y0028384D02*
X0026767Y0028384D01*
X0026767Y0025350D01*
X0025233Y0025350D01*
X0025233Y0028384D01*
X0025233Y0025916D02*
X0026767Y0025916D01*
X0026767Y0026482D02*
X0025233Y0026482D01*
X0025233Y0027048D02*
X0026767Y0027048D01*
X0026767Y0027614D02*
X0025233Y0027614D01*
X0025233Y0028180D02*
X0026767Y0028180D01*
X0027733Y0028384D02*
X0029267Y0028384D01*
X0029267Y0025350D01*
X0027733Y0025350D01*
X0027733Y0028384D01*
X0027733Y0025916D02*
X0029267Y0025916D01*
X0029267Y0026482D02*
X0027733Y0026482D01*
X0027733Y0027048D02*
X0029267Y0027048D01*
X0029267Y0027614D02*
X0027733Y0027614D01*
X0027733Y0028180D02*
X0029267Y0028180D01*
X0030233Y0028384D02*
X0031767Y0028384D01*
X0031767Y0025350D01*
X0030233Y0025350D01*
X0030233Y0028384D01*
X0030233Y0025916D02*
X0031767Y0025916D01*
X0031767Y0026482D02*
X0030233Y0026482D01*
X0030233Y0027048D02*
X0031767Y0027048D01*
X0031767Y0027614D02*
X0030233Y0027614D01*
X0030233Y0028180D02*
X0031767Y0028180D01*
X0032733Y0028384D02*
X0034267Y0028384D01*
X0034267Y0025350D01*
X0032733Y0025350D01*
X0032733Y0028384D01*
X0032733Y0025916D02*
X0034267Y0025916D01*
X0034267Y0026482D02*
X0032733Y0026482D01*
X0032733Y0027048D02*
X0034267Y0027048D01*
X0034267Y0027614D02*
X0032733Y0027614D01*
X0032733Y0028180D02*
X0034267Y0028180D01*
X0035233Y0028384D02*
X0036767Y0028384D01*
X0036767Y0025350D01*
X0035233Y0025350D01*
X0035233Y0028384D01*
X0035233Y0025916D02*
X0036767Y0025916D01*
X0036767Y0026482D02*
X0035233Y0026482D01*
X0035233Y0027048D02*
X0036767Y0027048D01*
X0036767Y0027614D02*
X0035233Y0027614D01*
X0035233Y0028180D02*
X0036767Y0028180D01*
X0037733Y0028384D02*
X0039267Y0028384D01*
X0039267Y0025350D01*
X0037733Y0025350D01*
X0037733Y0028384D01*
X0037733Y0025916D02*
X0039267Y0025916D01*
X0039267Y0026482D02*
X0037733Y0026482D01*
X0037733Y0027048D02*
X0039267Y0027048D01*
X0039267Y0027614D02*
X0037733Y0027614D01*
X0037733Y0028180D02*
X0039267Y0028180D01*
X0039267Y0033384D02*
X0037733Y0033384D01*
X0039267Y0033384D02*
X0039267Y0029350D01*
X0037733Y0029350D01*
X0037733Y0033384D01*
X0037733Y0029916D02*
X0039267Y0029916D01*
X0039267Y0030482D02*
X0037733Y0030482D01*
X0037733Y0031048D02*
X0039267Y0031048D01*
X0039267Y0031614D02*
X0037733Y0031614D01*
X0037733Y0032180D02*
X0039267Y0032180D01*
X0039267Y0032746D02*
X0037733Y0032746D01*
X0037733Y0033312D02*
X0039267Y0033312D01*
X0036767Y0033384D02*
X0035233Y0033384D01*
X0036767Y0033384D02*
X0036767Y0029350D01*
X0035233Y0029350D01*
X0035233Y0033384D01*
X0035233Y0029916D02*
X0036767Y0029916D01*
X0036767Y0030482D02*
X0035233Y0030482D01*
X0035233Y0031048D02*
X0036767Y0031048D01*
X0036767Y0031614D02*
X0035233Y0031614D01*
X0035233Y0032180D02*
X0036767Y0032180D01*
X0036767Y0032746D02*
X0035233Y0032746D01*
X0035233Y0033312D02*
X0036767Y0033312D01*
X0034267Y0033384D02*
X0032733Y0033384D01*
X0034267Y0033384D02*
X0034267Y0029350D01*
X0032733Y0029350D01*
X0032733Y0033384D01*
X0032733Y0029916D02*
X0034267Y0029916D01*
X0034267Y0030482D02*
X0032733Y0030482D01*
X0032733Y0031048D02*
X0034267Y0031048D01*
X0034267Y0031614D02*
X0032733Y0031614D01*
X0032733Y0032180D02*
X0034267Y0032180D01*
X0034267Y0032746D02*
X0032733Y0032746D01*
X0032733Y0033312D02*
X0034267Y0033312D01*
X0031767Y0033384D02*
X0030233Y0033384D01*
X0031767Y0033384D02*
X0031767Y0029350D01*
X0030233Y0029350D01*
X0030233Y0033384D01*
X0030233Y0029916D02*
X0031767Y0029916D01*
X0031767Y0030482D02*
X0030233Y0030482D01*
X0030233Y0031048D02*
X0031767Y0031048D01*
X0031767Y0031614D02*
X0030233Y0031614D01*
X0030233Y0032180D02*
X0031767Y0032180D01*
X0031767Y0032746D02*
X0030233Y0032746D01*
X0030233Y0033312D02*
X0031767Y0033312D01*
X0029267Y0033384D02*
X0027733Y0033384D01*
X0029267Y0033384D02*
X0029267Y0029350D01*
X0027733Y0029350D01*
X0027733Y0033384D01*
X0027733Y0029916D02*
X0029267Y0029916D01*
X0029267Y0030482D02*
X0027733Y0030482D01*
X0027733Y0031048D02*
X0029267Y0031048D01*
X0029267Y0031614D02*
X0027733Y0031614D01*
X0027733Y0032180D02*
X0029267Y0032180D01*
X0029267Y0032746D02*
X0027733Y0032746D01*
X0027733Y0033312D02*
X0029267Y0033312D01*
X0026767Y0033384D02*
X0025233Y0033384D01*
X0026767Y0033384D02*
X0026767Y0029350D01*
X0025233Y0029350D01*
X0025233Y0033384D01*
X0025233Y0029916D02*
X0026767Y0029916D01*
X0026767Y0030482D02*
X0025233Y0030482D01*
X0025233Y0031048D02*
X0026767Y0031048D01*
X0026767Y0031614D02*
X0025233Y0031614D01*
X0025233Y0032180D02*
X0026767Y0032180D01*
X0026767Y0032746D02*
X0025233Y0032746D01*
X0025233Y0033312D02*
X0026767Y0033312D01*
X0026767Y0045850D02*
X0025233Y0045850D01*
X0025233Y0049884D01*
X0026767Y0049884D01*
X0026767Y0045850D01*
X0026767Y0046416D02*
X0025233Y0046416D01*
X0025233Y0046982D02*
X0026767Y0046982D01*
X0026767Y0047548D02*
X0025233Y0047548D01*
X0025233Y0048114D02*
X0026767Y0048114D01*
X0026767Y0048680D02*
X0025233Y0048680D01*
X0025233Y0049246D02*
X0026767Y0049246D01*
X0026767Y0049812D02*
X0025233Y0049812D01*
X0024267Y0045850D02*
X0022733Y0045850D01*
X0022733Y0049884D01*
X0024267Y0049884D01*
X0024267Y0045850D01*
X0024267Y0046416D02*
X0022733Y0046416D01*
X0022733Y0046982D02*
X0024267Y0046982D01*
X0024267Y0047548D02*
X0022733Y0047548D01*
X0022733Y0048114D02*
X0024267Y0048114D01*
X0024267Y0048680D02*
X0022733Y0048680D01*
X0022733Y0049246D02*
X0024267Y0049246D01*
X0024267Y0049812D02*
X0022733Y0049812D01*
X0021767Y0045850D02*
X0020233Y0045850D01*
X0020233Y0049884D01*
X0021767Y0049884D01*
X0021767Y0045850D01*
X0021767Y0046416D02*
X0020233Y0046416D01*
X0020233Y0046982D02*
X0021767Y0046982D01*
X0021767Y0047548D02*
X0020233Y0047548D01*
X0020233Y0048114D02*
X0021767Y0048114D01*
X0021767Y0048680D02*
X0020233Y0048680D01*
X0020233Y0049246D02*
X0021767Y0049246D01*
X0021767Y0049812D02*
X0020233Y0049812D01*
X0019267Y0045850D02*
X0017733Y0045850D01*
X0017733Y0049884D01*
X0019267Y0049884D01*
X0019267Y0045850D01*
X0019267Y0046416D02*
X0017733Y0046416D01*
X0017733Y0046982D02*
X0019267Y0046982D01*
X0019267Y0047548D02*
X0017733Y0047548D01*
X0017733Y0048114D02*
X0019267Y0048114D01*
X0019267Y0048680D02*
X0017733Y0048680D01*
X0017733Y0049246D02*
X0019267Y0049246D01*
X0019267Y0049812D02*
X0017733Y0049812D01*
X0016767Y0045850D02*
X0015233Y0045850D01*
X0015233Y0049884D01*
X0016767Y0049884D01*
X0016767Y0045850D01*
X0016767Y0046416D02*
X0015233Y0046416D01*
X0015233Y0046982D02*
X0016767Y0046982D01*
X0016767Y0047548D02*
X0015233Y0047548D01*
X0015233Y0048114D02*
X0016767Y0048114D01*
X0016767Y0048680D02*
X0015233Y0048680D01*
X0015233Y0049246D02*
X0016767Y0049246D01*
X0016767Y0049812D02*
X0015233Y0049812D01*
X0014267Y0045850D02*
X0012733Y0045850D01*
X0012733Y0049884D01*
X0014267Y0049884D01*
X0014267Y0045850D01*
X0014267Y0046416D02*
X0012733Y0046416D01*
X0012733Y0046982D02*
X0014267Y0046982D01*
X0014267Y0047548D02*
X0012733Y0047548D01*
X0012733Y0048114D02*
X0014267Y0048114D01*
X0014267Y0048680D02*
X0012733Y0048680D01*
X0012733Y0049246D02*
X0014267Y0049246D01*
X0014267Y0049812D02*
X0012733Y0049812D01*
X0012733Y0050850D02*
X0014267Y0050850D01*
X0012733Y0050850D02*
X0012733Y0053884D01*
X0014267Y0053884D01*
X0014267Y0050850D01*
X0014267Y0051416D02*
X0012733Y0051416D01*
X0012733Y0051982D02*
X0014267Y0051982D01*
X0014267Y0052548D02*
X0012733Y0052548D01*
X0012733Y0053114D02*
X0014267Y0053114D01*
X0014267Y0053680D02*
X0012733Y0053680D01*
X0015233Y0050850D02*
X0016767Y0050850D01*
X0015233Y0050850D02*
X0015233Y0053884D01*
X0016767Y0053884D01*
X0016767Y0050850D01*
X0016767Y0051416D02*
X0015233Y0051416D01*
X0015233Y0051982D02*
X0016767Y0051982D01*
X0016767Y0052548D02*
X0015233Y0052548D01*
X0015233Y0053114D02*
X0016767Y0053114D01*
X0016767Y0053680D02*
X0015233Y0053680D01*
X0017733Y0050850D02*
X0019267Y0050850D01*
X0017733Y0050850D02*
X0017733Y0053884D01*
X0019267Y0053884D01*
X0019267Y0050850D01*
X0019267Y0051416D02*
X0017733Y0051416D01*
X0017733Y0051982D02*
X0019267Y0051982D01*
X0019267Y0052548D02*
X0017733Y0052548D01*
X0017733Y0053114D02*
X0019267Y0053114D01*
X0019267Y0053680D02*
X0017733Y0053680D01*
X0020233Y0050850D02*
X0021767Y0050850D01*
X0020233Y0050850D02*
X0020233Y0053884D01*
X0021767Y0053884D01*
X0021767Y0050850D01*
X0021767Y0051416D02*
X0020233Y0051416D01*
X0020233Y0051982D02*
X0021767Y0051982D01*
X0021767Y0052548D02*
X0020233Y0052548D01*
X0020233Y0053114D02*
X0021767Y0053114D01*
X0021767Y0053680D02*
X0020233Y0053680D01*
X0022733Y0050850D02*
X0024267Y0050850D01*
X0022733Y0050850D02*
X0022733Y0053884D01*
X0024267Y0053884D01*
X0024267Y0050850D01*
X0024267Y0051416D02*
X0022733Y0051416D01*
X0022733Y0051982D02*
X0024267Y0051982D01*
X0024267Y0052548D02*
X0022733Y0052548D01*
X0022733Y0053114D02*
X0024267Y0053114D01*
X0024267Y0053680D02*
X0022733Y0053680D01*
X0025233Y0050850D02*
X0026767Y0050850D01*
X0025233Y0050850D02*
X0025233Y0053884D01*
X0026767Y0053884D01*
X0026767Y0050850D01*
X0026767Y0051416D02*
X0025233Y0051416D01*
X0025233Y0051982D02*
X0026767Y0051982D01*
X0026767Y0052548D02*
X0025233Y0052548D01*
X0025233Y0053114D02*
X0026767Y0053114D01*
X0026767Y0053680D02*
X0025233Y0053680D01*
X0027733Y0050850D02*
X0029267Y0050850D01*
X0027733Y0050850D02*
X0027733Y0053884D01*
X0029267Y0053884D01*
X0029267Y0050850D01*
X0029267Y0051416D02*
X0027733Y0051416D01*
X0027733Y0051982D02*
X0029267Y0051982D01*
X0029267Y0052548D02*
X0027733Y0052548D01*
X0027733Y0053114D02*
X0029267Y0053114D01*
X0029267Y0053680D02*
X0027733Y0053680D01*
X0030233Y0050850D02*
X0031767Y0050850D01*
X0030233Y0050850D02*
X0030233Y0053884D01*
X0031767Y0053884D01*
X0031767Y0050850D01*
X0031767Y0051416D02*
X0030233Y0051416D01*
X0030233Y0051982D02*
X0031767Y0051982D01*
X0031767Y0052548D02*
X0030233Y0052548D01*
X0030233Y0053114D02*
X0031767Y0053114D01*
X0031767Y0053680D02*
X0030233Y0053680D01*
X0032733Y0050850D02*
X0034267Y0050850D01*
X0032733Y0050850D02*
X0032733Y0053884D01*
X0034267Y0053884D01*
X0034267Y0050850D01*
X0034267Y0051416D02*
X0032733Y0051416D01*
X0032733Y0051982D02*
X0034267Y0051982D01*
X0034267Y0052548D02*
X0032733Y0052548D01*
X0032733Y0053114D02*
X0034267Y0053114D01*
X0034267Y0053680D02*
X0032733Y0053680D01*
X0035233Y0050850D02*
X0036767Y0050850D01*
X0035233Y0050850D02*
X0035233Y0053884D01*
X0036767Y0053884D01*
X0036767Y0050850D01*
X0036767Y0051416D02*
X0035233Y0051416D01*
X0035233Y0051982D02*
X0036767Y0051982D01*
X0036767Y0052548D02*
X0035233Y0052548D01*
X0035233Y0053114D02*
X0036767Y0053114D01*
X0036767Y0053680D02*
X0035233Y0053680D01*
X0037733Y0050850D02*
X0039267Y0050850D01*
X0037733Y0050850D02*
X0037733Y0053884D01*
X0039267Y0053884D01*
X0039267Y0050850D01*
X0039267Y0051416D02*
X0037733Y0051416D01*
X0037733Y0051982D02*
X0039267Y0051982D01*
X0039267Y0052548D02*
X0037733Y0052548D01*
X0037733Y0053114D02*
X0039267Y0053114D01*
X0039267Y0053680D02*
X0037733Y0053680D01*
X0040233Y0050850D02*
X0041767Y0050850D01*
X0040233Y0050850D02*
X0040233Y0053884D01*
X0041767Y0053884D01*
X0041767Y0050850D01*
X0041767Y0051416D02*
X0040233Y0051416D01*
X0040233Y0051982D02*
X0041767Y0051982D01*
X0041767Y0052548D02*
X0040233Y0052548D01*
X0040233Y0053114D02*
X0041767Y0053114D01*
X0041767Y0053680D02*
X0040233Y0053680D01*
X0042733Y0050850D02*
X0044267Y0050850D01*
X0042733Y0050850D02*
X0042733Y0053884D01*
X0044267Y0053884D01*
X0044267Y0050850D01*
X0044267Y0051416D02*
X0042733Y0051416D01*
X0042733Y0051982D02*
X0044267Y0051982D01*
X0044267Y0052548D02*
X0042733Y0052548D01*
X0042733Y0053114D02*
X0044267Y0053114D01*
X0044267Y0053680D02*
X0042733Y0053680D01*
X0045233Y0050850D02*
X0046767Y0050850D01*
X0045233Y0050850D02*
X0045233Y0053884D01*
X0046767Y0053884D01*
X0046767Y0050850D01*
X0046767Y0051416D02*
X0045233Y0051416D01*
X0045233Y0051982D02*
X0046767Y0051982D01*
X0046767Y0052548D02*
X0045233Y0052548D01*
X0045233Y0053114D02*
X0046767Y0053114D01*
X0046767Y0053680D02*
X0045233Y0053680D01*
X0047733Y0050850D02*
X0049267Y0050850D01*
X0047733Y0050850D02*
X0047733Y0053884D01*
X0049267Y0053884D01*
X0049267Y0050850D01*
X0049267Y0051416D02*
X0047733Y0051416D01*
X0047733Y0051982D02*
X0049267Y0051982D01*
X0049267Y0052548D02*
X0047733Y0052548D01*
X0047733Y0053114D02*
X0049267Y0053114D01*
X0049267Y0053680D02*
X0047733Y0053680D01*
X0050233Y0050850D02*
X0051767Y0050850D01*
X0050233Y0050850D02*
X0050233Y0053884D01*
X0051767Y0053884D01*
X0051767Y0050850D01*
X0051767Y0051416D02*
X0050233Y0051416D01*
X0050233Y0051982D02*
X0051767Y0051982D01*
X0051767Y0052548D02*
X0050233Y0052548D01*
X0050233Y0053114D02*
X0051767Y0053114D01*
X0051767Y0053680D02*
X0050233Y0053680D01*
X0052733Y0050850D02*
X0054267Y0050850D01*
X0052733Y0050850D02*
X0052733Y0053884D01*
X0054267Y0053884D01*
X0054267Y0050850D01*
X0054267Y0051416D02*
X0052733Y0051416D01*
X0052733Y0051982D02*
X0054267Y0051982D01*
X0054267Y0052548D02*
X0052733Y0052548D01*
X0052733Y0053114D02*
X0054267Y0053114D01*
X0054267Y0053680D02*
X0052733Y0053680D01*
X0055233Y0050850D02*
X0056767Y0050850D01*
X0055233Y0050850D02*
X0055233Y0053884D01*
X0056767Y0053884D01*
X0056767Y0050850D01*
X0056767Y0051416D02*
X0055233Y0051416D01*
X0055233Y0051982D02*
X0056767Y0051982D01*
X0056767Y0052548D02*
X0055233Y0052548D01*
X0055233Y0053114D02*
X0056767Y0053114D01*
X0056767Y0053680D02*
X0055233Y0053680D01*
X0055233Y0045850D02*
X0056767Y0045850D01*
X0055233Y0045850D02*
X0055233Y0049884D01*
X0056767Y0049884D01*
X0056767Y0045850D01*
X0056767Y0046416D02*
X0055233Y0046416D01*
X0055233Y0046982D02*
X0056767Y0046982D01*
X0056767Y0047548D02*
X0055233Y0047548D01*
X0055233Y0048114D02*
X0056767Y0048114D01*
X0056767Y0048680D02*
X0055233Y0048680D01*
X0055233Y0049246D02*
X0056767Y0049246D01*
X0056767Y0049812D02*
X0055233Y0049812D01*
X0054267Y0045850D02*
X0052733Y0045850D01*
X0052733Y0049884D01*
X0054267Y0049884D01*
X0054267Y0045850D01*
X0054267Y0046416D02*
X0052733Y0046416D01*
X0052733Y0046982D02*
X0054267Y0046982D01*
X0054267Y0047548D02*
X0052733Y0047548D01*
X0052733Y0048114D02*
X0054267Y0048114D01*
X0054267Y0048680D02*
X0052733Y0048680D01*
X0052733Y0049246D02*
X0054267Y0049246D01*
X0054267Y0049812D02*
X0052733Y0049812D01*
X0051767Y0045850D02*
X0050233Y0045850D01*
X0050233Y0049884D01*
X0051767Y0049884D01*
X0051767Y0045850D01*
X0051767Y0046416D02*
X0050233Y0046416D01*
X0050233Y0046982D02*
X0051767Y0046982D01*
X0051767Y0047548D02*
X0050233Y0047548D01*
X0050233Y0048114D02*
X0051767Y0048114D01*
X0051767Y0048680D02*
X0050233Y0048680D01*
X0050233Y0049246D02*
X0051767Y0049246D01*
X0051767Y0049812D02*
X0050233Y0049812D01*
X0049267Y0045850D02*
X0047733Y0045850D01*
X0047733Y0049884D01*
X0049267Y0049884D01*
X0049267Y0045850D01*
X0049267Y0046416D02*
X0047733Y0046416D01*
X0047733Y0046982D02*
X0049267Y0046982D01*
X0049267Y0047548D02*
X0047733Y0047548D01*
X0047733Y0048114D02*
X0049267Y0048114D01*
X0049267Y0048680D02*
X0047733Y0048680D01*
X0047733Y0049246D02*
X0049267Y0049246D01*
X0049267Y0049812D02*
X0047733Y0049812D01*
X0046767Y0045850D02*
X0045233Y0045850D01*
X0045233Y0049884D01*
X0046767Y0049884D01*
X0046767Y0045850D01*
X0046767Y0046416D02*
X0045233Y0046416D01*
X0045233Y0046982D02*
X0046767Y0046982D01*
X0046767Y0047548D02*
X0045233Y0047548D01*
X0045233Y0048114D02*
X0046767Y0048114D01*
X0046767Y0048680D02*
X0045233Y0048680D01*
X0045233Y0049246D02*
X0046767Y0049246D01*
X0046767Y0049812D02*
X0045233Y0049812D01*
X0044267Y0045850D02*
X0042733Y0045850D01*
X0042733Y0049884D01*
X0044267Y0049884D01*
X0044267Y0045850D01*
X0044267Y0046416D02*
X0042733Y0046416D01*
X0042733Y0046982D02*
X0044267Y0046982D01*
X0044267Y0047548D02*
X0042733Y0047548D01*
X0042733Y0048114D02*
X0044267Y0048114D01*
X0044267Y0048680D02*
X0042733Y0048680D01*
X0042733Y0049246D02*
X0044267Y0049246D01*
X0044267Y0049812D02*
X0042733Y0049812D01*
X0041767Y0045850D02*
X0040233Y0045850D01*
X0040233Y0049884D01*
X0041767Y0049884D01*
X0041767Y0045850D01*
X0041767Y0046416D02*
X0040233Y0046416D01*
X0040233Y0046982D02*
X0041767Y0046982D01*
X0041767Y0047548D02*
X0040233Y0047548D01*
X0040233Y0048114D02*
X0041767Y0048114D01*
X0041767Y0048680D02*
X0040233Y0048680D01*
X0040233Y0049246D02*
X0041767Y0049246D01*
X0041767Y0049812D02*
X0040233Y0049812D01*
X0039267Y0045850D02*
X0037733Y0045850D01*
X0037733Y0049884D01*
X0039267Y0049884D01*
X0039267Y0045850D01*
X0039267Y0046416D02*
X0037733Y0046416D01*
X0037733Y0046982D02*
X0039267Y0046982D01*
X0039267Y0047548D02*
X0037733Y0047548D01*
X0037733Y0048114D02*
X0039267Y0048114D01*
X0039267Y0048680D02*
X0037733Y0048680D01*
X0037733Y0049246D02*
X0039267Y0049246D01*
X0039267Y0049812D02*
X0037733Y0049812D01*
X0036767Y0045850D02*
X0035233Y0045850D01*
X0035233Y0049884D01*
X0036767Y0049884D01*
X0036767Y0045850D01*
X0036767Y0046416D02*
X0035233Y0046416D01*
X0035233Y0046982D02*
X0036767Y0046982D01*
X0036767Y0047548D02*
X0035233Y0047548D01*
X0035233Y0048114D02*
X0036767Y0048114D01*
X0036767Y0048680D02*
X0035233Y0048680D01*
X0035233Y0049246D02*
X0036767Y0049246D01*
X0036767Y0049812D02*
X0035233Y0049812D01*
X0034267Y0045850D02*
X0032733Y0045850D01*
X0032733Y0049884D01*
X0034267Y0049884D01*
X0034267Y0045850D01*
X0034267Y0046416D02*
X0032733Y0046416D01*
X0032733Y0046982D02*
X0034267Y0046982D01*
X0034267Y0047548D02*
X0032733Y0047548D01*
X0032733Y0048114D02*
X0034267Y0048114D01*
X0034267Y0048680D02*
X0032733Y0048680D01*
X0032733Y0049246D02*
X0034267Y0049246D01*
X0034267Y0049812D02*
X0032733Y0049812D01*
X0031767Y0045850D02*
X0030233Y0045850D01*
X0030233Y0049884D01*
X0031767Y0049884D01*
X0031767Y0045850D01*
X0031767Y0046416D02*
X0030233Y0046416D01*
X0030233Y0046982D02*
X0031767Y0046982D01*
X0031767Y0047548D02*
X0030233Y0047548D01*
X0030233Y0048114D02*
X0031767Y0048114D01*
X0031767Y0048680D02*
X0030233Y0048680D01*
X0030233Y0049246D02*
X0031767Y0049246D01*
X0031767Y0049812D02*
X0030233Y0049812D01*
X0029267Y0045850D02*
X0027733Y0045850D01*
X0027733Y0049884D01*
X0029267Y0049884D01*
X0029267Y0045850D01*
X0029267Y0046416D02*
X0027733Y0046416D01*
X0027733Y0046982D02*
X0029267Y0046982D01*
X0029267Y0047548D02*
X0027733Y0047548D01*
X0027733Y0048114D02*
X0029267Y0048114D01*
X0029267Y0048680D02*
X0027733Y0048680D01*
X0027733Y0049246D02*
X0029267Y0049246D01*
X0029267Y0049812D02*
X0027733Y0049812D01*
D11*
X0017118Y0008847D02*
X0014264Y0008847D01*
X0014264Y0012487D01*
X0017118Y0012487D01*
X0017118Y0008847D01*
X0017118Y0009349D02*
X0014264Y0009349D01*
X0014264Y0009851D02*
X0017118Y0009851D01*
X0017118Y0010353D02*
X0014264Y0010353D01*
X0014264Y0010855D02*
X0017118Y0010855D01*
X0017118Y0011357D02*
X0014264Y0011357D01*
X0014264Y0011859D02*
X0017118Y0011859D01*
X0017118Y0012361D02*
X0014264Y0012361D01*
X0019382Y0008847D02*
X0022236Y0008847D01*
X0019382Y0008847D02*
X0019382Y0012487D01*
X0022236Y0012487D01*
X0022236Y0008847D01*
X0022236Y0009349D02*
X0019382Y0009349D01*
X0019382Y0009851D02*
X0022236Y0009851D01*
X0022236Y0010353D02*
X0019382Y0010353D01*
X0019382Y0010855D02*
X0022236Y0010855D01*
X0022236Y0011357D02*
X0019382Y0011357D01*
X0019382Y0011859D02*
X0022236Y0011859D01*
X0022236Y0012361D02*
X0019382Y0012361D01*
X0030264Y0035047D02*
X0033118Y0035047D01*
X0030264Y0035047D02*
X0030264Y0038687D01*
X0033118Y0038687D01*
X0033118Y0035047D01*
X0033118Y0035549D02*
X0030264Y0035549D01*
X0030264Y0036051D02*
X0033118Y0036051D01*
X0033118Y0036553D02*
X0030264Y0036553D01*
X0030264Y0037055D02*
X0033118Y0037055D01*
X0033118Y0037557D02*
X0030264Y0037557D01*
X0030264Y0038059D02*
X0033118Y0038059D01*
X0033118Y0038561D02*
X0030264Y0038561D01*
X0035382Y0035047D02*
X0038236Y0035047D01*
X0035382Y0035047D02*
X0035382Y0038687D01*
X0038236Y0038687D01*
X0038236Y0035047D01*
X0038236Y0035549D02*
X0035382Y0035549D01*
X0035382Y0036051D02*
X0038236Y0036051D01*
X0038236Y0036553D02*
X0035382Y0036553D01*
X0035382Y0037055D02*
X0038236Y0037055D01*
X0038236Y0037557D02*
X0035382Y0037557D01*
X0035382Y0038059D02*
X0038236Y0038059D01*
X0038236Y0038561D02*
X0035382Y0038561D01*
X0044570Y0033853D02*
X0044570Y0030999D01*
X0040930Y0030999D01*
X0040930Y0033853D01*
X0044570Y0033853D01*
X0044570Y0031501D02*
X0040930Y0031501D01*
X0040930Y0032003D02*
X0044570Y0032003D01*
X0044570Y0032505D02*
X0040930Y0032505D01*
X0040930Y0033007D02*
X0044570Y0033007D01*
X0044570Y0033509D02*
X0040930Y0033509D01*
X0044570Y0028735D02*
X0044570Y0025881D01*
X0040930Y0025881D01*
X0040930Y0028735D01*
X0044570Y0028735D01*
X0044570Y0026383D02*
X0040930Y0026383D01*
X0040930Y0026885D02*
X0044570Y0026885D01*
X0044570Y0027387D02*
X0040930Y0027387D01*
X0040930Y0027889D02*
X0044570Y0027889D01*
X0044570Y0028391D02*
X0040930Y0028391D01*
D12*
X0047750Y0020367D03*
X0053250Y0019867D03*
X0055750Y0033367D03*
X0053250Y0035367D03*
X0056250Y0037367D03*
X0053750Y0038867D03*
X0056250Y0040367D03*
X0054250Y0042367D03*
X0056750Y0043367D03*
X0058750Y0047367D03*
X0060250Y0053867D03*
X0053550Y0059267D03*
X0052750Y0056367D03*
X0049750Y0057867D03*
X0046250Y0058367D03*
X0043250Y0058367D03*
X0040750Y0056867D03*
X0038250Y0057867D03*
X0035750Y0058367D03*
X0033250Y0057367D03*
X0030750Y0057867D03*
X0028250Y0058367D03*
X0025750Y0058867D03*
X0023250Y0056867D03*
X0020750Y0057367D03*
X0017750Y0058867D03*
X0015750Y0056867D03*
X0012450Y0057767D03*
X0009950Y0052967D03*
X0009750Y0048367D03*
X0009250Y0045367D03*
X0009750Y0042867D03*
X0010250Y0040367D03*
X0012250Y0038867D03*
X0010250Y0037367D03*
X0012250Y0035367D03*
X0010250Y0033367D03*
X0011650Y0031267D03*
X0015250Y0020867D03*
X0023612Y0028642D03*
X0024750Y0016867D03*
X0025250Y0013367D03*
X0025750Y0010867D03*
X0029750Y0012367D03*
X0031250Y0014367D03*
X0032250Y0016667D03*
X0034750Y0016367D03*
X0037750Y0011367D03*
X0005050Y0053967D03*
D13*
X0006612Y0025642D03*
X0010112Y0021642D03*
X0043250Y0015367D03*
X0043250Y0011367D03*
X0047250Y0011367D03*
M02*
