G75*
%MOIN*%
%OFA0B0*%
%FSLAX24Y24*%
%IPPOS*%
%LPD*%
%AMOC8*
5,1,8,0,0,1.08239X$1,22.5*
%
%ADD10C,0.0135*%
D10*
X000408Y000969D02*
X000408Y001235D01*
X000408Y000969D02*
X000392Y000969D01*
X000392Y001235D01*
X000408Y001235D01*
X000408Y001103D02*
X000392Y001103D01*
X000658Y001235D02*
X000658Y000969D01*
X000642Y000969D01*
X000642Y001235D01*
X000658Y001235D01*
X000658Y001103D02*
X000642Y001103D01*
X000658Y000735D02*
X000658Y000469D01*
X000642Y000469D01*
X000642Y000735D01*
X000658Y000735D01*
X000658Y000603D02*
X000642Y000603D01*
X000908Y000735D02*
X000908Y000469D01*
X000892Y000469D01*
X000892Y000735D01*
X000908Y000735D01*
X000908Y000603D02*
X000892Y000603D01*
X000908Y000969D02*
X000908Y001235D01*
X000908Y000969D02*
X000892Y000969D01*
X000892Y001235D01*
X000908Y001235D01*
X000908Y001103D02*
X000892Y001103D01*
X001158Y001235D02*
X001158Y000969D01*
X001142Y000969D01*
X001142Y001235D01*
X001158Y001235D01*
X001158Y001103D02*
X001142Y001103D01*
X001158Y000735D02*
X001158Y000469D01*
X001142Y000469D01*
X001142Y000735D01*
X001158Y000735D01*
X001158Y000603D02*
X001142Y000603D01*
X001408Y000735D02*
X001408Y000469D01*
X001392Y000469D01*
X001392Y000735D01*
X001408Y000735D01*
X001408Y000603D02*
X001392Y000603D01*
X001408Y000969D02*
X001408Y001235D01*
X001408Y000969D02*
X001392Y000969D01*
X001392Y001235D01*
X001408Y001235D01*
X001408Y001103D02*
X001392Y001103D01*
X001658Y001235D02*
X001658Y000969D01*
X001642Y000969D01*
X001642Y001235D01*
X001658Y001235D01*
X001658Y001103D02*
X001642Y001103D01*
X001658Y000735D02*
X001658Y000469D01*
X001642Y000469D01*
X001642Y000735D01*
X001658Y000735D01*
X001658Y000603D02*
X001642Y000603D01*
X001908Y000735D02*
X001908Y000469D01*
X001892Y000469D01*
X001892Y000735D01*
X001908Y000735D01*
X001908Y000603D02*
X001892Y000603D01*
X001908Y000969D02*
X001908Y001235D01*
X001908Y000969D02*
X001892Y000969D01*
X001892Y001235D01*
X001908Y001235D01*
X001908Y001103D02*
X001892Y001103D01*
X002158Y001235D02*
X002158Y000969D01*
X002142Y000969D01*
X002142Y001235D01*
X002158Y001235D01*
X002158Y001103D02*
X002142Y001103D01*
X002158Y000735D02*
X002158Y000469D01*
X002142Y000469D01*
X002142Y000735D01*
X002158Y000735D01*
X002158Y000603D02*
X002142Y000603D01*
X002408Y000735D02*
X002408Y000469D01*
X002392Y000469D01*
X002392Y000735D01*
X002408Y000735D01*
X002408Y000603D02*
X002392Y000603D01*
X002408Y000969D02*
X002408Y001235D01*
X002408Y000969D02*
X002392Y000969D01*
X002392Y001235D01*
X002408Y001235D01*
X002408Y001103D02*
X002392Y001103D01*
X002658Y001235D02*
X002658Y000969D01*
X002642Y000969D01*
X002642Y001235D01*
X002658Y001235D01*
X002658Y001103D02*
X002642Y001103D01*
X002549Y025461D02*
X002549Y025727D01*
X002565Y025727D01*
X002565Y025461D01*
X002549Y025461D01*
X002565Y025595D02*
X002549Y025595D01*
X002299Y025727D02*
X002299Y025461D01*
X002299Y025727D02*
X002315Y025727D01*
X002315Y025461D01*
X002299Y025461D01*
X002315Y025595D02*
X002299Y025595D01*
X002299Y025961D02*
X002299Y026227D01*
X002315Y026227D01*
X002315Y025961D01*
X002299Y025961D01*
X002315Y026095D02*
X002299Y026095D01*
X002049Y026227D02*
X002049Y025961D01*
X002049Y026227D02*
X002065Y026227D01*
X002065Y025961D01*
X002049Y025961D01*
X002065Y026095D02*
X002049Y026095D01*
X002049Y025727D02*
X002049Y025461D01*
X002049Y025727D02*
X002065Y025727D01*
X002065Y025461D01*
X002049Y025461D01*
X002065Y025595D02*
X002049Y025595D01*
X001799Y025727D02*
X001799Y025461D01*
X001799Y025727D02*
X001815Y025727D01*
X001815Y025461D01*
X001799Y025461D01*
X001815Y025595D02*
X001799Y025595D01*
X001799Y025961D02*
X001799Y026227D01*
X001815Y026227D01*
X001815Y025961D01*
X001799Y025961D01*
X001815Y026095D02*
X001799Y026095D01*
X001549Y026227D02*
X001549Y025961D01*
X001549Y026227D02*
X001565Y026227D01*
X001565Y025961D01*
X001549Y025961D01*
X001565Y026095D02*
X001549Y026095D01*
X001549Y025727D02*
X001549Y025461D01*
X001549Y025727D02*
X001565Y025727D01*
X001565Y025461D01*
X001549Y025461D01*
X001565Y025595D02*
X001549Y025595D01*
X001299Y025727D02*
X001299Y025461D01*
X001299Y025727D02*
X001315Y025727D01*
X001315Y025461D01*
X001299Y025461D01*
X001315Y025595D02*
X001299Y025595D01*
X001299Y025961D02*
X001299Y026227D01*
X001315Y026227D01*
X001315Y025961D01*
X001299Y025961D01*
X001315Y026095D02*
X001299Y026095D01*
X001049Y026227D02*
X001049Y025961D01*
X001049Y026227D02*
X001065Y026227D01*
X001065Y025961D01*
X001049Y025961D01*
X001065Y026095D02*
X001049Y026095D01*
X001049Y025727D02*
X001049Y025461D01*
X001049Y025727D02*
X001065Y025727D01*
X001065Y025461D01*
X001049Y025461D01*
X001065Y025595D02*
X001049Y025595D01*
X000799Y025727D02*
X000799Y025461D01*
X000799Y025727D02*
X000815Y025727D01*
X000815Y025461D01*
X000799Y025461D01*
X000815Y025595D02*
X000799Y025595D01*
X000799Y025961D02*
X000799Y026227D01*
X000815Y026227D01*
X000815Y025961D01*
X000799Y025961D01*
X000815Y026095D02*
X000799Y026095D01*
X000549Y026227D02*
X000549Y025961D01*
X000549Y026227D02*
X000565Y026227D01*
X000565Y025961D01*
X000549Y025961D01*
X000565Y026095D02*
X000549Y026095D01*
X000549Y025727D02*
X000549Y025461D01*
X000549Y025727D02*
X000565Y025727D01*
X000565Y025461D01*
X000549Y025461D01*
X000565Y025595D02*
X000549Y025595D01*
X000299Y025727D02*
X000299Y025461D01*
X000299Y025727D02*
X000315Y025727D01*
X000315Y025461D01*
X000299Y025461D01*
X000315Y025595D02*
X000299Y025595D01*
M02*
