G75*
%MOIN*%
%OFA0B0*%
%FSLAX24Y24*%
%IPPOS*%
%LPD*%
%AMOC8*
5,1,8,0,0,1.08239X$1,22.5*
%
%ADD10C,0.0000*%
%ADD11C,0.0135*%
%ADD12C,0.0030*%
%ADD13OC8,0.0190*%
%ADD14C,0.0190*%
D10*
X000157Y000258D02*
X000226Y000258D01*
X000153Y001435D01*
X001037Y002071D01*
X001019Y002432D01*
X001025Y023755D01*
X001036Y024123D01*
X000100Y025247D01*
X000132Y026192D01*
X000393Y026476D01*
X002659Y026445D01*
X002823Y025846D01*
X002623Y024532D01*
X001813Y024144D01*
X001845Y023639D01*
X002014Y002644D01*
X002014Y002037D01*
X002941Y001474D01*
X002887Y000251D01*
X002885Y000360D01*
X000157Y000258D01*
D11*
X000408Y000969D02*
X000408Y001235D01*
X000408Y000969D02*
X000392Y000969D01*
X000392Y001235D01*
X000408Y001235D01*
X000408Y001103D02*
X000392Y001103D01*
X000658Y001235D02*
X000658Y000969D01*
X000642Y000969D01*
X000642Y001235D01*
X000658Y001235D01*
X000658Y001103D02*
X000642Y001103D01*
X000658Y000735D02*
X000658Y000469D01*
X000642Y000469D01*
X000642Y000735D01*
X000658Y000735D01*
X000658Y000603D02*
X000642Y000603D01*
X000908Y000735D02*
X000908Y000469D01*
X000892Y000469D01*
X000892Y000735D01*
X000908Y000735D01*
X000908Y000603D02*
X000892Y000603D01*
X000908Y000969D02*
X000908Y001235D01*
X000908Y000969D02*
X000892Y000969D01*
X000892Y001235D01*
X000908Y001235D01*
X000908Y001103D02*
X000892Y001103D01*
X001158Y001235D02*
X001158Y000969D01*
X001142Y000969D01*
X001142Y001235D01*
X001158Y001235D01*
X001158Y001103D02*
X001142Y001103D01*
X001158Y000735D02*
X001158Y000469D01*
X001142Y000469D01*
X001142Y000735D01*
X001158Y000735D01*
X001158Y000603D02*
X001142Y000603D01*
X001408Y000735D02*
X001408Y000469D01*
X001392Y000469D01*
X001392Y000735D01*
X001408Y000735D01*
X001408Y000603D02*
X001392Y000603D01*
X001408Y000969D02*
X001408Y001235D01*
X001408Y000969D02*
X001392Y000969D01*
X001392Y001235D01*
X001408Y001235D01*
X001408Y001103D02*
X001392Y001103D01*
X001658Y001235D02*
X001658Y000969D01*
X001642Y000969D01*
X001642Y001235D01*
X001658Y001235D01*
X001658Y001103D02*
X001642Y001103D01*
X001658Y000735D02*
X001658Y000469D01*
X001642Y000469D01*
X001642Y000735D01*
X001658Y000735D01*
X001658Y000603D02*
X001642Y000603D01*
X001908Y000735D02*
X001908Y000469D01*
X001892Y000469D01*
X001892Y000735D01*
X001908Y000735D01*
X001908Y000603D02*
X001892Y000603D01*
X001908Y000969D02*
X001908Y001235D01*
X001908Y000969D02*
X001892Y000969D01*
X001892Y001235D01*
X001908Y001235D01*
X001908Y001103D02*
X001892Y001103D01*
X002158Y001235D02*
X002158Y000969D01*
X002142Y000969D01*
X002142Y001235D01*
X002158Y001235D01*
X002158Y001103D02*
X002142Y001103D01*
X002158Y000735D02*
X002158Y000469D01*
X002142Y000469D01*
X002142Y000735D01*
X002158Y000735D01*
X002158Y000603D02*
X002142Y000603D01*
X002408Y000735D02*
X002408Y000469D01*
X002392Y000469D01*
X002392Y000735D01*
X002408Y000735D01*
X002408Y000603D02*
X002392Y000603D01*
X002408Y000969D02*
X002408Y001235D01*
X002408Y000969D02*
X002392Y000969D01*
X002392Y001235D01*
X002408Y001235D01*
X002408Y001103D02*
X002392Y001103D01*
X002658Y001235D02*
X002658Y000969D01*
X002642Y000969D01*
X002642Y001235D01*
X002658Y001235D01*
X002658Y001103D02*
X002642Y001103D01*
X002549Y025461D02*
X002549Y025727D01*
X002565Y025727D01*
X002565Y025461D01*
X002549Y025461D01*
X002565Y025595D02*
X002549Y025595D01*
X002299Y025727D02*
X002299Y025461D01*
X002299Y025727D02*
X002315Y025727D01*
X002315Y025461D01*
X002299Y025461D01*
X002315Y025595D02*
X002299Y025595D01*
X002299Y025961D02*
X002299Y026227D01*
X002315Y026227D01*
X002315Y025961D01*
X002299Y025961D01*
X002315Y026095D02*
X002299Y026095D01*
X002049Y026227D02*
X002049Y025961D01*
X002049Y026227D02*
X002065Y026227D01*
X002065Y025961D01*
X002049Y025961D01*
X002065Y026095D02*
X002049Y026095D01*
X002049Y025727D02*
X002049Y025461D01*
X002049Y025727D02*
X002065Y025727D01*
X002065Y025461D01*
X002049Y025461D01*
X002065Y025595D02*
X002049Y025595D01*
X001799Y025727D02*
X001799Y025461D01*
X001799Y025727D02*
X001815Y025727D01*
X001815Y025461D01*
X001799Y025461D01*
X001815Y025595D02*
X001799Y025595D01*
X001799Y025961D02*
X001799Y026227D01*
X001815Y026227D01*
X001815Y025961D01*
X001799Y025961D01*
X001815Y026095D02*
X001799Y026095D01*
X001549Y026227D02*
X001549Y025961D01*
X001549Y026227D02*
X001565Y026227D01*
X001565Y025961D01*
X001549Y025961D01*
X001565Y026095D02*
X001549Y026095D01*
X001549Y025727D02*
X001549Y025461D01*
X001549Y025727D02*
X001565Y025727D01*
X001565Y025461D01*
X001549Y025461D01*
X001565Y025595D02*
X001549Y025595D01*
X001299Y025727D02*
X001299Y025461D01*
X001299Y025727D02*
X001315Y025727D01*
X001315Y025461D01*
X001299Y025461D01*
X001315Y025595D02*
X001299Y025595D01*
X001299Y025961D02*
X001299Y026227D01*
X001315Y026227D01*
X001315Y025961D01*
X001299Y025961D01*
X001315Y026095D02*
X001299Y026095D01*
X001049Y026227D02*
X001049Y025961D01*
X001049Y026227D02*
X001065Y026227D01*
X001065Y025961D01*
X001049Y025961D01*
X001065Y026095D02*
X001049Y026095D01*
X001049Y025727D02*
X001049Y025461D01*
X001049Y025727D02*
X001065Y025727D01*
X001065Y025461D01*
X001049Y025461D01*
X001065Y025595D02*
X001049Y025595D01*
X000799Y025727D02*
X000799Y025461D01*
X000799Y025727D02*
X000815Y025727D01*
X000815Y025461D01*
X000799Y025461D01*
X000815Y025595D02*
X000799Y025595D01*
X000799Y025961D02*
X000799Y026227D01*
X000815Y026227D01*
X000815Y025961D01*
X000799Y025961D01*
X000815Y026095D02*
X000799Y026095D01*
X000549Y026227D02*
X000549Y025961D01*
X000549Y026227D02*
X000565Y026227D01*
X000565Y025961D01*
X000549Y025961D01*
X000565Y026095D02*
X000549Y026095D01*
X000549Y025727D02*
X000549Y025461D01*
X000549Y025727D02*
X000565Y025727D01*
X000565Y025461D01*
X000549Y025461D01*
X000565Y025595D02*
X000549Y025595D01*
X000299Y025727D02*
X000299Y025461D01*
X000299Y025727D02*
X000315Y025727D01*
X000315Y025461D01*
X000299Y025461D01*
X000315Y025595D02*
X000299Y025595D01*
D12*
X000307Y025594D02*
X001172Y024226D01*
X001115Y001919D01*
X000400Y001102D01*
X000650Y001102D02*
X001199Y001907D01*
X001241Y024242D01*
X000557Y025594D01*
X000552Y026037D02*
X000557Y026094D01*
X000807Y025594D02*
X001288Y024271D01*
X001246Y004973D01*
X001292Y001893D01*
X000900Y001102D01*
X001150Y001102D02*
X001356Y001884D01*
X001332Y024307D01*
X001057Y025594D01*
X001307Y025594D02*
X001464Y004988D01*
X001458Y001814D01*
X001400Y001102D01*
X001650Y001102D02*
X001543Y001784D01*
X001397Y024335D01*
X001557Y025594D01*
X001860Y024845D02*
X001428Y024338D01*
X001623Y005508D01*
X001610Y001808D01*
X001900Y001102D01*
X002316Y001358D02*
X001827Y001908D01*
X001565Y024288D01*
X002346Y024766D01*
X002307Y025594D01*
X002453Y025489D02*
X002455Y024712D01*
X001623Y024234D01*
X001905Y001930D01*
X002514Y001336D01*
X002650Y001102D01*
X002514Y001336D02*
X002486Y001384D01*
X002316Y001358D02*
X002400Y001102D01*
X002150Y001102D02*
X001714Y001826D01*
X001543Y024322D01*
X002067Y024760D01*
X002057Y025594D01*
X001807Y025594D02*
X001860Y024845D01*
X001824Y026086D02*
X001850Y026086D01*
X001824Y026086D02*
X001807Y026094D01*
X002453Y025489D02*
X002557Y025594D01*
D13*
X002302Y026152D03*
X002064Y026011D03*
X001808Y026178D03*
X001553Y026046D03*
X001300Y026208D03*
X001053Y026016D03*
X000801Y026174D03*
X000552Y026037D03*
X001637Y000677D03*
X001395Y000533D03*
X001139Y000614D03*
X000897Y000519D03*
X001892Y000505D03*
X002143Y000683D03*
X002390Y000544D03*
D14*
X000631Y000667D03*
M02*
