G75*
%MOIN*%
%OFA0B0*%
%FSLAX25Y25*%
%IPPOS*%
%LPD*%
%AMOC8*
5,1,8,0,0,1.08239X$1,22.5*
%
%ADD10C,0.00390*%
%ADD11C,0.00650*%
%ADD12C,0.00492*%
%ADD13C,0.02200*%
%ADD14C,0.02400*%
%ADD15C,0.03800*%
D10*
X0017496Y0026813D02*
X0036604Y0026813D01*
X0017496Y0026813D02*
X0017496Y0045921D01*
X0036604Y0045921D01*
X0036604Y0026813D01*
X0036604Y0027202D02*
X0017496Y0027202D01*
X0017496Y0027591D02*
X0036604Y0027591D01*
X0036604Y0027980D02*
X0017496Y0027980D01*
X0017496Y0028369D02*
X0036604Y0028369D01*
X0036604Y0028758D02*
X0017496Y0028758D01*
X0017496Y0029147D02*
X0036604Y0029147D01*
X0036604Y0029536D02*
X0017496Y0029536D01*
X0017496Y0029925D02*
X0036604Y0029925D01*
X0036604Y0030314D02*
X0017496Y0030314D01*
X0017496Y0030703D02*
X0036604Y0030703D01*
X0036604Y0031092D02*
X0017496Y0031092D01*
X0017496Y0031481D02*
X0036604Y0031481D01*
X0036604Y0031870D02*
X0017496Y0031870D01*
X0017496Y0032259D02*
X0036604Y0032259D01*
X0036604Y0032648D02*
X0017496Y0032648D01*
X0017496Y0033037D02*
X0036604Y0033037D01*
X0036604Y0033426D02*
X0017496Y0033426D01*
X0017496Y0033815D02*
X0036604Y0033815D01*
X0036604Y0034204D02*
X0017496Y0034204D01*
X0017496Y0034593D02*
X0036604Y0034593D01*
X0036604Y0034982D02*
X0017496Y0034982D01*
X0017496Y0035371D02*
X0036604Y0035371D01*
X0036604Y0035760D02*
X0017496Y0035760D01*
X0017496Y0036149D02*
X0036604Y0036149D01*
X0036604Y0036538D02*
X0017496Y0036538D01*
X0017496Y0036927D02*
X0036604Y0036927D01*
X0036604Y0037316D02*
X0017496Y0037316D01*
X0017496Y0037705D02*
X0036604Y0037705D01*
X0036604Y0038094D02*
X0017496Y0038094D01*
X0017496Y0038483D02*
X0036604Y0038483D01*
X0036604Y0038872D02*
X0017496Y0038872D01*
X0017496Y0039261D02*
X0036604Y0039261D01*
X0036604Y0039650D02*
X0017496Y0039650D01*
X0017496Y0040039D02*
X0036604Y0040039D01*
X0036604Y0040428D02*
X0017496Y0040428D01*
X0017496Y0040817D02*
X0036604Y0040817D01*
X0036604Y0041206D02*
X0017496Y0041206D01*
X0017496Y0041595D02*
X0036604Y0041595D01*
X0036604Y0041984D02*
X0017496Y0041984D01*
X0017496Y0042373D02*
X0036604Y0042373D01*
X0036604Y0042762D02*
X0017496Y0042762D01*
X0017496Y0043151D02*
X0036604Y0043151D01*
X0036604Y0043540D02*
X0017496Y0043540D01*
X0017496Y0043929D02*
X0036604Y0043929D01*
X0036604Y0044318D02*
X0017496Y0044318D01*
X0017496Y0044707D02*
X0036604Y0044707D01*
X0036604Y0045096D02*
X0017496Y0045096D01*
X0017496Y0045485D02*
X0036604Y0045485D01*
X0036604Y0045874D02*
X0017496Y0045874D01*
D11*
X0018659Y0050566D02*
X0018659Y0054058D01*
X0018659Y0050566D02*
X0017725Y0050566D01*
X0017725Y0054058D01*
X0018659Y0054058D01*
X0018659Y0051215D02*
X0017725Y0051215D01*
X0017725Y0051864D02*
X0018659Y0051864D01*
X0018659Y0052513D02*
X0017725Y0052513D01*
X0017725Y0053162D02*
X0018659Y0053162D01*
X0018659Y0053811D02*
X0017725Y0053811D01*
X0016690Y0054058D02*
X0016690Y0050566D01*
X0015756Y0050566D01*
X0015756Y0054058D01*
X0016690Y0054058D01*
X0016690Y0051215D02*
X0015756Y0051215D01*
X0015756Y0051864D02*
X0016690Y0051864D01*
X0016690Y0052513D02*
X0015756Y0052513D01*
X0015756Y0053162D02*
X0016690Y0053162D01*
X0016690Y0053811D02*
X0015756Y0053811D01*
X0014722Y0054058D02*
X0014722Y0050566D01*
X0013788Y0050566D01*
X0013788Y0054058D01*
X0014722Y0054058D01*
X0014722Y0051215D02*
X0013788Y0051215D01*
X0013788Y0051864D02*
X0014722Y0051864D01*
X0014722Y0052513D02*
X0013788Y0052513D01*
X0013788Y0053162D02*
X0014722Y0053162D01*
X0014722Y0053811D02*
X0013788Y0053811D01*
X0012851Y0048695D02*
X0009359Y0048695D01*
X0009359Y0049629D01*
X0012851Y0049629D01*
X0012851Y0048695D01*
X0012851Y0049344D02*
X0009359Y0049344D01*
X0009359Y0046726D02*
X0012851Y0046726D01*
X0009359Y0046726D02*
X0009359Y0047660D01*
X0012851Y0047660D01*
X0012851Y0046726D01*
X0012851Y0047375D02*
X0009359Y0047375D01*
X0009359Y0044758D02*
X0012851Y0044758D01*
X0009359Y0044758D02*
X0009359Y0045692D01*
X0012851Y0045692D01*
X0012851Y0044758D01*
X0012851Y0045407D02*
X0009359Y0045407D01*
X0009359Y0042789D02*
X0012851Y0042789D01*
X0009359Y0042789D02*
X0009359Y0043723D01*
X0012851Y0043723D01*
X0012851Y0042789D01*
X0012851Y0043438D02*
X0009359Y0043438D01*
X0009359Y0040821D02*
X0012851Y0040821D01*
X0009359Y0040821D02*
X0009359Y0041755D01*
X0012851Y0041755D01*
X0012851Y0040821D01*
X0012851Y0041470D02*
X0009359Y0041470D01*
X0009359Y0038852D02*
X0012851Y0038852D01*
X0009359Y0038852D02*
X0009359Y0039786D01*
X0012851Y0039786D01*
X0012851Y0038852D01*
X0012851Y0039501D02*
X0009359Y0039501D01*
X0009359Y0036884D02*
X0012851Y0036884D01*
X0009359Y0036884D02*
X0009359Y0037818D01*
X0012851Y0037818D01*
X0012851Y0036884D01*
X0012851Y0037533D02*
X0009359Y0037533D01*
X0009359Y0034915D02*
X0012851Y0034915D01*
X0009359Y0034915D02*
X0009359Y0035849D01*
X0012851Y0035849D01*
X0012851Y0034915D01*
X0012851Y0035564D02*
X0009359Y0035564D01*
X0009359Y0032947D02*
X0012851Y0032947D01*
X0009359Y0032947D02*
X0009359Y0033881D01*
X0012851Y0033881D01*
X0012851Y0032947D01*
X0012851Y0033596D02*
X0009359Y0033596D01*
X0009359Y0030978D02*
X0012851Y0030978D01*
X0009359Y0030978D02*
X0009359Y0031912D01*
X0012851Y0031912D01*
X0012851Y0030978D01*
X0012851Y0031627D02*
X0009359Y0031627D01*
X0009359Y0029010D02*
X0012851Y0029010D01*
X0009359Y0029010D02*
X0009359Y0029944D01*
X0012851Y0029944D01*
X0012851Y0029010D01*
X0012851Y0029659D02*
X0009359Y0029659D01*
X0009359Y0027041D02*
X0012851Y0027041D01*
X0009359Y0027041D02*
X0009359Y0027975D01*
X0012851Y0027975D01*
X0012851Y0027041D01*
X0012851Y0027690D02*
X0009359Y0027690D01*
X0009359Y0025073D02*
X0012851Y0025073D01*
X0009359Y0025073D02*
X0009359Y0026007D01*
X0012851Y0026007D01*
X0012851Y0025073D01*
X0012851Y0025722D02*
X0009359Y0025722D01*
X0009359Y0023104D02*
X0012851Y0023104D01*
X0009359Y0023104D02*
X0009359Y0024038D01*
X0012851Y0024038D01*
X0012851Y0023104D01*
X0012851Y0023753D02*
X0009359Y0023753D01*
X0014722Y0022168D02*
X0014722Y0018676D01*
X0013788Y0018676D01*
X0013788Y0022168D01*
X0014722Y0022168D01*
X0014722Y0019325D02*
X0013788Y0019325D01*
X0013788Y0019974D02*
X0014722Y0019974D01*
X0014722Y0020623D02*
X0013788Y0020623D01*
X0013788Y0021272D02*
X0014722Y0021272D01*
X0014722Y0021921D02*
X0013788Y0021921D01*
X0016690Y0022168D02*
X0016690Y0018676D01*
X0015756Y0018676D01*
X0015756Y0022168D01*
X0016690Y0022168D01*
X0016690Y0019325D02*
X0015756Y0019325D01*
X0015756Y0019974D02*
X0016690Y0019974D01*
X0016690Y0020623D02*
X0015756Y0020623D01*
X0015756Y0021272D02*
X0016690Y0021272D01*
X0016690Y0021921D02*
X0015756Y0021921D01*
X0018659Y0022168D02*
X0018659Y0018676D01*
X0017725Y0018676D01*
X0017725Y0022168D01*
X0018659Y0022168D01*
X0018659Y0019325D02*
X0017725Y0019325D01*
X0017725Y0019974D02*
X0018659Y0019974D01*
X0018659Y0020623D02*
X0017725Y0020623D01*
X0017725Y0021272D02*
X0018659Y0021272D01*
X0018659Y0021921D02*
X0017725Y0021921D01*
X0020627Y0022168D02*
X0020627Y0018676D01*
X0019693Y0018676D01*
X0019693Y0022168D01*
X0020627Y0022168D01*
X0020627Y0019325D02*
X0019693Y0019325D01*
X0019693Y0019974D02*
X0020627Y0019974D01*
X0020627Y0020623D02*
X0019693Y0020623D01*
X0019693Y0021272D02*
X0020627Y0021272D01*
X0020627Y0021921D02*
X0019693Y0021921D01*
X0022596Y0022168D02*
X0022596Y0018676D01*
X0021662Y0018676D01*
X0021662Y0022168D01*
X0022596Y0022168D01*
X0022596Y0019325D02*
X0021662Y0019325D01*
X0021662Y0019974D02*
X0022596Y0019974D01*
X0022596Y0020623D02*
X0021662Y0020623D01*
X0021662Y0021272D02*
X0022596Y0021272D01*
X0022596Y0021921D02*
X0021662Y0021921D01*
X0024564Y0022168D02*
X0024564Y0018676D01*
X0023630Y0018676D01*
X0023630Y0022168D01*
X0024564Y0022168D01*
X0024564Y0019325D02*
X0023630Y0019325D01*
X0023630Y0019974D02*
X0024564Y0019974D01*
X0024564Y0020623D02*
X0023630Y0020623D01*
X0023630Y0021272D02*
X0024564Y0021272D01*
X0024564Y0021921D02*
X0023630Y0021921D01*
X0026533Y0022168D02*
X0026533Y0018676D01*
X0025599Y0018676D01*
X0025599Y0022168D01*
X0026533Y0022168D01*
X0026533Y0019325D02*
X0025599Y0019325D01*
X0025599Y0019974D02*
X0026533Y0019974D01*
X0026533Y0020623D02*
X0025599Y0020623D01*
X0025599Y0021272D02*
X0026533Y0021272D01*
X0026533Y0021921D02*
X0025599Y0021921D01*
X0028501Y0022168D02*
X0028501Y0018676D01*
X0027567Y0018676D01*
X0027567Y0022168D01*
X0028501Y0022168D01*
X0028501Y0019325D02*
X0027567Y0019325D01*
X0027567Y0019974D02*
X0028501Y0019974D01*
X0028501Y0020623D02*
X0027567Y0020623D01*
X0027567Y0021272D02*
X0028501Y0021272D01*
X0028501Y0021921D02*
X0027567Y0021921D01*
X0030470Y0022168D02*
X0030470Y0018676D01*
X0029536Y0018676D01*
X0029536Y0022168D01*
X0030470Y0022168D01*
X0030470Y0019325D02*
X0029536Y0019325D01*
X0029536Y0019974D02*
X0030470Y0019974D01*
X0030470Y0020623D02*
X0029536Y0020623D01*
X0029536Y0021272D02*
X0030470Y0021272D01*
X0030470Y0021921D02*
X0029536Y0021921D01*
X0032438Y0022168D02*
X0032438Y0018676D01*
X0031504Y0018676D01*
X0031504Y0022168D01*
X0032438Y0022168D01*
X0032438Y0019325D02*
X0031504Y0019325D01*
X0031504Y0019974D02*
X0032438Y0019974D01*
X0032438Y0020623D02*
X0031504Y0020623D01*
X0031504Y0021272D02*
X0032438Y0021272D01*
X0032438Y0021921D02*
X0031504Y0021921D01*
X0034407Y0022168D02*
X0034407Y0018676D01*
X0033473Y0018676D01*
X0033473Y0022168D01*
X0034407Y0022168D01*
X0034407Y0019325D02*
X0033473Y0019325D01*
X0033473Y0019974D02*
X0034407Y0019974D01*
X0034407Y0020623D02*
X0033473Y0020623D01*
X0033473Y0021272D02*
X0034407Y0021272D01*
X0034407Y0021921D02*
X0033473Y0021921D01*
X0036375Y0022168D02*
X0036375Y0018676D01*
X0035441Y0018676D01*
X0035441Y0022168D01*
X0036375Y0022168D01*
X0036375Y0019325D02*
X0035441Y0019325D01*
X0035441Y0019974D02*
X0036375Y0019974D01*
X0036375Y0020623D02*
X0035441Y0020623D01*
X0035441Y0021272D02*
X0036375Y0021272D01*
X0036375Y0021921D02*
X0035441Y0021921D01*
X0038344Y0022168D02*
X0038344Y0018676D01*
X0037410Y0018676D01*
X0037410Y0022168D01*
X0038344Y0022168D01*
X0038344Y0019325D02*
X0037410Y0019325D01*
X0037410Y0019974D02*
X0038344Y0019974D01*
X0038344Y0020623D02*
X0037410Y0020623D01*
X0037410Y0021272D02*
X0038344Y0021272D01*
X0038344Y0021921D02*
X0037410Y0021921D01*
X0040312Y0022168D02*
X0040312Y0018676D01*
X0039378Y0018676D01*
X0039378Y0022168D01*
X0040312Y0022168D01*
X0040312Y0019325D02*
X0039378Y0019325D01*
X0039378Y0019974D02*
X0040312Y0019974D01*
X0040312Y0020623D02*
X0039378Y0020623D01*
X0039378Y0021272D02*
X0040312Y0021272D01*
X0040312Y0021921D02*
X0039378Y0021921D01*
X0041249Y0023104D02*
X0044741Y0023104D01*
X0041249Y0023104D02*
X0041249Y0024038D01*
X0044741Y0024038D01*
X0044741Y0023104D01*
X0044741Y0023753D02*
X0041249Y0023753D01*
X0041249Y0025073D02*
X0044741Y0025073D01*
X0041249Y0025073D02*
X0041249Y0026007D01*
X0044741Y0026007D01*
X0044741Y0025073D01*
X0044741Y0025722D02*
X0041249Y0025722D01*
X0041249Y0027041D02*
X0044741Y0027041D01*
X0041249Y0027041D02*
X0041249Y0027975D01*
X0044741Y0027975D01*
X0044741Y0027041D01*
X0044741Y0027690D02*
X0041249Y0027690D01*
X0041249Y0029010D02*
X0044741Y0029010D01*
X0041249Y0029010D02*
X0041249Y0029944D01*
X0044741Y0029944D01*
X0044741Y0029010D01*
X0044741Y0029659D02*
X0041249Y0029659D01*
X0041249Y0030978D02*
X0044741Y0030978D01*
X0041249Y0030978D02*
X0041249Y0031912D01*
X0044741Y0031912D01*
X0044741Y0030978D01*
X0044741Y0031627D02*
X0041249Y0031627D01*
X0041249Y0032947D02*
X0044741Y0032947D01*
X0041249Y0032947D02*
X0041249Y0033881D01*
X0044741Y0033881D01*
X0044741Y0032947D01*
X0044741Y0033596D02*
X0041249Y0033596D01*
X0041249Y0034915D02*
X0044741Y0034915D01*
X0041249Y0034915D02*
X0041249Y0035849D01*
X0044741Y0035849D01*
X0044741Y0034915D01*
X0044741Y0035564D02*
X0041249Y0035564D01*
X0041249Y0036884D02*
X0044741Y0036884D01*
X0041249Y0036884D02*
X0041249Y0037818D01*
X0044741Y0037818D01*
X0044741Y0036884D01*
X0044741Y0037533D02*
X0041249Y0037533D01*
X0041249Y0038852D02*
X0044741Y0038852D01*
X0041249Y0038852D02*
X0041249Y0039786D01*
X0044741Y0039786D01*
X0044741Y0038852D01*
X0044741Y0039501D02*
X0041249Y0039501D01*
X0041249Y0040821D02*
X0044741Y0040821D01*
X0041249Y0040821D02*
X0041249Y0041755D01*
X0044741Y0041755D01*
X0044741Y0040821D01*
X0044741Y0041470D02*
X0041249Y0041470D01*
X0041249Y0042789D02*
X0044741Y0042789D01*
X0041249Y0042789D02*
X0041249Y0043723D01*
X0044741Y0043723D01*
X0044741Y0042789D01*
X0044741Y0043438D02*
X0041249Y0043438D01*
X0041249Y0044758D02*
X0044741Y0044758D01*
X0041249Y0044758D02*
X0041249Y0045692D01*
X0044741Y0045692D01*
X0044741Y0044758D01*
X0044741Y0045407D02*
X0041249Y0045407D01*
X0041249Y0046726D02*
X0044741Y0046726D01*
X0041249Y0046726D02*
X0041249Y0047660D01*
X0044741Y0047660D01*
X0044741Y0046726D01*
X0044741Y0047375D02*
X0041249Y0047375D01*
X0041249Y0048695D02*
X0044741Y0048695D01*
X0041249Y0048695D02*
X0041249Y0049629D01*
X0044741Y0049629D01*
X0044741Y0048695D01*
X0044741Y0049344D02*
X0041249Y0049344D01*
X0040312Y0050566D02*
X0040312Y0054058D01*
X0040312Y0050566D02*
X0039378Y0050566D01*
X0039378Y0054058D01*
X0040312Y0054058D01*
X0040312Y0051215D02*
X0039378Y0051215D01*
X0039378Y0051864D02*
X0040312Y0051864D01*
X0040312Y0052513D02*
X0039378Y0052513D01*
X0039378Y0053162D02*
X0040312Y0053162D01*
X0040312Y0053811D02*
X0039378Y0053811D01*
X0038344Y0054058D02*
X0038344Y0050566D01*
X0037410Y0050566D01*
X0037410Y0054058D01*
X0038344Y0054058D01*
X0038344Y0051215D02*
X0037410Y0051215D01*
X0037410Y0051864D02*
X0038344Y0051864D01*
X0038344Y0052513D02*
X0037410Y0052513D01*
X0037410Y0053162D02*
X0038344Y0053162D01*
X0038344Y0053811D02*
X0037410Y0053811D01*
X0036375Y0054058D02*
X0036375Y0050566D01*
X0035441Y0050566D01*
X0035441Y0054058D01*
X0036375Y0054058D01*
X0036375Y0051215D02*
X0035441Y0051215D01*
X0035441Y0051864D02*
X0036375Y0051864D01*
X0036375Y0052513D02*
X0035441Y0052513D01*
X0035441Y0053162D02*
X0036375Y0053162D01*
X0036375Y0053811D02*
X0035441Y0053811D01*
X0034407Y0054058D02*
X0034407Y0050566D01*
X0033473Y0050566D01*
X0033473Y0054058D01*
X0034407Y0054058D01*
X0034407Y0051215D02*
X0033473Y0051215D01*
X0033473Y0051864D02*
X0034407Y0051864D01*
X0034407Y0052513D02*
X0033473Y0052513D01*
X0033473Y0053162D02*
X0034407Y0053162D01*
X0034407Y0053811D02*
X0033473Y0053811D01*
X0032438Y0054058D02*
X0032438Y0050566D01*
X0031504Y0050566D01*
X0031504Y0054058D01*
X0032438Y0054058D01*
X0032438Y0051215D02*
X0031504Y0051215D01*
X0031504Y0051864D02*
X0032438Y0051864D01*
X0032438Y0052513D02*
X0031504Y0052513D01*
X0031504Y0053162D02*
X0032438Y0053162D01*
X0032438Y0053811D02*
X0031504Y0053811D01*
X0030470Y0054058D02*
X0030470Y0050566D01*
X0029536Y0050566D01*
X0029536Y0054058D01*
X0030470Y0054058D01*
X0030470Y0051215D02*
X0029536Y0051215D01*
X0029536Y0051864D02*
X0030470Y0051864D01*
X0030470Y0052513D02*
X0029536Y0052513D01*
X0029536Y0053162D02*
X0030470Y0053162D01*
X0030470Y0053811D02*
X0029536Y0053811D01*
X0028501Y0054058D02*
X0028501Y0050566D01*
X0027567Y0050566D01*
X0027567Y0054058D01*
X0028501Y0054058D01*
X0028501Y0051215D02*
X0027567Y0051215D01*
X0027567Y0051864D02*
X0028501Y0051864D01*
X0028501Y0052513D02*
X0027567Y0052513D01*
X0027567Y0053162D02*
X0028501Y0053162D01*
X0028501Y0053811D02*
X0027567Y0053811D01*
X0026533Y0054058D02*
X0026533Y0050566D01*
X0025599Y0050566D01*
X0025599Y0054058D01*
X0026533Y0054058D01*
X0026533Y0051215D02*
X0025599Y0051215D01*
X0025599Y0051864D02*
X0026533Y0051864D01*
X0026533Y0052513D02*
X0025599Y0052513D01*
X0025599Y0053162D02*
X0026533Y0053162D01*
X0026533Y0053811D02*
X0025599Y0053811D01*
X0024564Y0054058D02*
X0024564Y0050566D01*
X0023630Y0050566D01*
X0023630Y0054058D01*
X0024564Y0054058D01*
X0024564Y0051215D02*
X0023630Y0051215D01*
X0023630Y0051864D02*
X0024564Y0051864D01*
X0024564Y0052513D02*
X0023630Y0052513D01*
X0023630Y0053162D02*
X0024564Y0053162D01*
X0024564Y0053811D02*
X0023630Y0053811D01*
X0022596Y0054058D02*
X0022596Y0050566D01*
X0021662Y0050566D01*
X0021662Y0054058D01*
X0022596Y0054058D01*
X0022596Y0051215D02*
X0021662Y0051215D01*
X0021662Y0051864D02*
X0022596Y0051864D01*
X0022596Y0052513D02*
X0021662Y0052513D01*
X0021662Y0053162D02*
X0022596Y0053162D01*
X0022596Y0053811D02*
X0021662Y0053811D01*
X0020627Y0054058D02*
X0020627Y0050566D01*
X0019693Y0050566D01*
X0019693Y0054058D01*
X0020627Y0054058D01*
X0020627Y0051215D02*
X0019693Y0051215D01*
X0019693Y0051864D02*
X0020627Y0051864D01*
X0020627Y0052513D02*
X0019693Y0052513D01*
X0019693Y0053162D02*
X0020627Y0053162D01*
X0020627Y0053811D02*
X0019693Y0053811D01*
D12*
X0038313Y0016577D02*
X0042063Y0016577D01*
X0042063Y0013557D01*
X0038313Y0013557D01*
X0038313Y0016577D01*
X0038313Y0014048D02*
X0042063Y0014048D01*
X0042063Y0014539D02*
X0038313Y0014539D01*
X0038313Y0015030D02*
X0042063Y0015030D01*
X0042063Y0015521D02*
X0038313Y0015521D01*
X0038313Y0016012D02*
X0042063Y0016012D01*
X0042063Y0016503D02*
X0038313Y0016503D01*
X0043037Y0016577D02*
X0046787Y0016577D01*
X0046787Y0013557D01*
X0043037Y0013557D01*
X0043037Y0016577D01*
X0043037Y0014048D02*
X0046787Y0014048D01*
X0046787Y0014539D02*
X0043037Y0014539D01*
X0043037Y0015030D02*
X0046787Y0015030D01*
X0046787Y0015521D02*
X0043037Y0015521D01*
X0043037Y0016012D02*
X0046787Y0016012D01*
X0046787Y0016503D02*
X0043037Y0016503D01*
D13*
X0043150Y0020467D03*
X0038818Y0023993D03*
X0047788Y0028229D03*
X0046650Y0036967D03*
X0037923Y0044034D03*
X0030450Y0055583D03*
X0028450Y0056883D03*
X0026250Y0055967D03*
X0024050Y0056867D03*
X0021950Y0055867D03*
X0019950Y0056667D03*
X0017750Y0055567D03*
X0015250Y0055967D03*
X0012650Y0055267D03*
X0011050Y0052167D03*
X0007850Y0031367D03*
X0032740Y0056867D03*
X0035171Y0056057D03*
X0037750Y0056767D03*
D14*
X0010550Y0020867D03*
X0018912Y0028642D03*
X0020050Y0016867D03*
X0020550Y0013367D03*
X0021050Y0010867D03*
X0025050Y0012367D03*
X0026450Y0014567D03*
X0027550Y0016967D03*
X0030050Y0016367D03*
X0033050Y0011367D03*
X0042550Y0055567D03*
X0040250Y0056667D03*
D15*
X0038750Y0015467D03*
X0042550Y0011367D03*
X0005450Y0031367D03*
X0005050Y0026967D03*
M02*
