%
M48
M72
T01C0.00400
T02C0.00600
T03C0.02000
%
T01
X7850Y31367
X11050Y52167
X12650Y55267
X15250Y55967
X17750Y55567
X19950Y56667
X21950Y55867
X24050Y56867
X26250Y55967
X28450Y56883
X30450Y55583
X32740Y56867
X35171Y56057
X37750Y56767
X37923Y44034
X46650Y36967
X47788Y28229
X43150Y20467
X38818Y23993
T02
X10550Y20867
X18912Y28642
X20050Y16867
X20550Y13367
X21050Y10867
X25050Y12367
X26450Y14567
X27550Y16967
X30050Y16367
X33050Y11367
X42550Y55567
X40250Y56667
T03
X38750Y15467
X42550Y11367
X5450Y31367
X5050Y26967
M30
