G75*
%MOIN*%
%OFA0B0*%
%FSLAX25Y25*%
%IPPOS*%
%LPD*%
%AMOC8*
5,1,8,0,0,1.08239X$1,22.5*
%
%ADD10C,0.00567*%
%ADD11C,0.00503*%
%ADD12C,0.00492*%
%ADD13C,0.01890*%
%ADD14C,0.02200*%
%ADD15C,0.02400*%
%ADD16C,0.03800*%
D10*
X0020533Y0028384D02*
X0022067Y0028384D01*
X0022067Y0025350D01*
X0020533Y0025350D01*
X0020533Y0028384D01*
X0020533Y0025916D02*
X0022067Y0025916D01*
X0022067Y0026482D02*
X0020533Y0026482D01*
X0020533Y0027048D02*
X0022067Y0027048D01*
X0022067Y0027614D02*
X0020533Y0027614D01*
X0020533Y0028180D02*
X0022067Y0028180D01*
X0023033Y0028384D02*
X0024567Y0028384D01*
X0024567Y0025350D01*
X0023033Y0025350D01*
X0023033Y0028384D01*
X0023033Y0025916D02*
X0024567Y0025916D01*
X0024567Y0026482D02*
X0023033Y0026482D01*
X0023033Y0027048D02*
X0024567Y0027048D01*
X0024567Y0027614D02*
X0023033Y0027614D01*
X0023033Y0028180D02*
X0024567Y0028180D01*
X0025533Y0028384D02*
X0027067Y0028384D01*
X0027067Y0025350D01*
X0025533Y0025350D01*
X0025533Y0028384D01*
X0025533Y0025916D02*
X0027067Y0025916D01*
X0027067Y0026482D02*
X0025533Y0026482D01*
X0025533Y0027048D02*
X0027067Y0027048D01*
X0027067Y0027614D02*
X0025533Y0027614D01*
X0025533Y0028180D02*
X0027067Y0028180D01*
X0028033Y0028384D02*
X0029567Y0028384D01*
X0029567Y0025350D01*
X0028033Y0025350D01*
X0028033Y0028384D01*
X0028033Y0025916D02*
X0029567Y0025916D01*
X0029567Y0026482D02*
X0028033Y0026482D01*
X0028033Y0027048D02*
X0029567Y0027048D01*
X0029567Y0027614D02*
X0028033Y0027614D01*
X0028033Y0028180D02*
X0029567Y0028180D01*
X0030533Y0028384D02*
X0032067Y0028384D01*
X0032067Y0025350D01*
X0030533Y0025350D01*
X0030533Y0028384D01*
X0030533Y0025916D02*
X0032067Y0025916D01*
X0032067Y0026482D02*
X0030533Y0026482D01*
X0030533Y0027048D02*
X0032067Y0027048D01*
X0032067Y0027614D02*
X0030533Y0027614D01*
X0030533Y0028180D02*
X0032067Y0028180D01*
X0033033Y0028384D02*
X0034567Y0028384D01*
X0034567Y0025350D01*
X0033033Y0025350D01*
X0033033Y0028384D01*
X0033033Y0025916D02*
X0034567Y0025916D01*
X0034567Y0026482D02*
X0033033Y0026482D01*
X0033033Y0027048D02*
X0034567Y0027048D01*
X0034567Y0027614D02*
X0033033Y0027614D01*
X0033033Y0028180D02*
X0034567Y0028180D01*
X0034567Y0033384D02*
X0033033Y0033384D01*
X0034567Y0033384D02*
X0034567Y0029350D01*
X0033033Y0029350D01*
X0033033Y0033384D01*
X0033033Y0029916D02*
X0034567Y0029916D01*
X0034567Y0030482D02*
X0033033Y0030482D01*
X0033033Y0031048D02*
X0034567Y0031048D01*
X0034567Y0031614D02*
X0033033Y0031614D01*
X0033033Y0032180D02*
X0034567Y0032180D01*
X0034567Y0032746D02*
X0033033Y0032746D01*
X0033033Y0033312D02*
X0034567Y0033312D01*
X0032067Y0033384D02*
X0030533Y0033384D01*
X0032067Y0033384D02*
X0032067Y0029350D01*
X0030533Y0029350D01*
X0030533Y0033384D01*
X0030533Y0029916D02*
X0032067Y0029916D01*
X0032067Y0030482D02*
X0030533Y0030482D01*
X0030533Y0031048D02*
X0032067Y0031048D01*
X0032067Y0031614D02*
X0030533Y0031614D01*
X0030533Y0032180D02*
X0032067Y0032180D01*
X0032067Y0032746D02*
X0030533Y0032746D01*
X0030533Y0033312D02*
X0032067Y0033312D01*
X0029567Y0033384D02*
X0028033Y0033384D01*
X0029567Y0033384D02*
X0029567Y0029350D01*
X0028033Y0029350D01*
X0028033Y0033384D01*
X0028033Y0029916D02*
X0029567Y0029916D01*
X0029567Y0030482D02*
X0028033Y0030482D01*
X0028033Y0031048D02*
X0029567Y0031048D01*
X0029567Y0031614D02*
X0028033Y0031614D01*
X0028033Y0032180D02*
X0029567Y0032180D01*
X0029567Y0032746D02*
X0028033Y0032746D01*
X0028033Y0033312D02*
X0029567Y0033312D01*
X0027067Y0033384D02*
X0025533Y0033384D01*
X0027067Y0033384D02*
X0027067Y0029350D01*
X0025533Y0029350D01*
X0025533Y0033384D01*
X0025533Y0029916D02*
X0027067Y0029916D01*
X0027067Y0030482D02*
X0025533Y0030482D01*
X0025533Y0031048D02*
X0027067Y0031048D01*
X0027067Y0031614D02*
X0025533Y0031614D01*
X0025533Y0032180D02*
X0027067Y0032180D01*
X0027067Y0032746D02*
X0025533Y0032746D01*
X0025533Y0033312D02*
X0027067Y0033312D01*
X0024567Y0033384D02*
X0023033Y0033384D01*
X0024567Y0033384D02*
X0024567Y0029350D01*
X0023033Y0029350D01*
X0023033Y0033384D01*
X0023033Y0029916D02*
X0024567Y0029916D01*
X0024567Y0030482D02*
X0023033Y0030482D01*
X0023033Y0031048D02*
X0024567Y0031048D01*
X0024567Y0031614D02*
X0023033Y0031614D01*
X0023033Y0032180D02*
X0024567Y0032180D01*
X0024567Y0032746D02*
X0023033Y0032746D01*
X0023033Y0033312D02*
X0024567Y0033312D01*
X0022067Y0033384D02*
X0020533Y0033384D01*
X0022067Y0033384D02*
X0022067Y0029350D01*
X0020533Y0029350D01*
X0020533Y0033384D01*
X0020533Y0029916D02*
X0022067Y0029916D01*
X0022067Y0030482D02*
X0020533Y0030482D01*
X0020533Y0031048D02*
X0022067Y0031048D01*
X0022067Y0031614D02*
X0020533Y0031614D01*
X0020533Y0032180D02*
X0022067Y0032180D01*
X0022067Y0032746D02*
X0020533Y0032746D01*
X0020533Y0033312D02*
X0022067Y0033312D01*
D11*
X0012418Y0008847D02*
X0009564Y0008847D01*
X0009564Y0012487D01*
X0012418Y0012487D01*
X0012418Y0008847D01*
X0012418Y0009349D02*
X0009564Y0009349D01*
X0009564Y0009851D02*
X0012418Y0009851D01*
X0012418Y0010353D02*
X0009564Y0010353D01*
X0009564Y0010855D02*
X0012418Y0010855D01*
X0012418Y0011357D02*
X0009564Y0011357D01*
X0009564Y0011859D02*
X0012418Y0011859D01*
X0012418Y0012361D02*
X0009564Y0012361D01*
X0014682Y0008847D02*
X0017536Y0008847D01*
X0014682Y0008847D02*
X0014682Y0012487D01*
X0017536Y0012487D01*
X0017536Y0008847D01*
X0017536Y0009349D02*
X0014682Y0009349D01*
X0014682Y0009851D02*
X0017536Y0009851D01*
X0017536Y0010353D02*
X0014682Y0010353D01*
X0014682Y0010855D02*
X0017536Y0010855D01*
X0017536Y0011357D02*
X0014682Y0011357D01*
X0014682Y0011859D02*
X0017536Y0011859D01*
X0017536Y0012361D02*
X0014682Y0012361D01*
X0025564Y0035047D02*
X0028418Y0035047D01*
X0025564Y0035047D02*
X0025564Y0038687D01*
X0028418Y0038687D01*
X0028418Y0035047D01*
X0028418Y0035549D02*
X0025564Y0035549D01*
X0025564Y0036051D02*
X0028418Y0036051D01*
X0028418Y0036553D02*
X0025564Y0036553D01*
X0025564Y0037055D02*
X0028418Y0037055D01*
X0028418Y0037557D02*
X0025564Y0037557D01*
X0025564Y0038059D02*
X0028418Y0038059D01*
X0028418Y0038561D02*
X0025564Y0038561D01*
X0030682Y0035047D02*
X0033536Y0035047D01*
X0030682Y0035047D02*
X0030682Y0038687D01*
X0033536Y0038687D01*
X0033536Y0035047D01*
X0033536Y0035549D02*
X0030682Y0035549D01*
X0030682Y0036051D02*
X0033536Y0036051D01*
X0033536Y0036553D02*
X0030682Y0036553D01*
X0030682Y0037055D02*
X0033536Y0037055D01*
X0033536Y0037557D02*
X0030682Y0037557D01*
X0030682Y0038059D02*
X0033536Y0038059D01*
X0033536Y0038561D02*
X0030682Y0038561D01*
X0039870Y0033853D02*
X0039870Y0030999D01*
X0036230Y0030999D01*
X0036230Y0033853D01*
X0039870Y0033853D01*
X0039870Y0031501D02*
X0036230Y0031501D01*
X0036230Y0032003D02*
X0039870Y0032003D01*
X0039870Y0032505D02*
X0036230Y0032505D01*
X0036230Y0033007D02*
X0039870Y0033007D01*
X0039870Y0033509D02*
X0036230Y0033509D01*
X0039870Y0028735D02*
X0039870Y0025881D01*
X0036230Y0025881D01*
X0036230Y0028735D01*
X0039870Y0028735D01*
X0039870Y0026383D02*
X0036230Y0026383D01*
X0036230Y0026885D02*
X0039870Y0026885D01*
X0039870Y0027387D02*
X0036230Y0027387D01*
X0036230Y0027889D02*
X0039870Y0027889D01*
X0039870Y0028391D02*
X0036230Y0028391D01*
D12*
X0046160Y0028154D02*
X0046160Y0031904D01*
X0046160Y0028154D02*
X0043140Y0028154D01*
X0043140Y0031904D01*
X0046160Y0031904D01*
X0046160Y0028645D02*
X0043140Y0028645D01*
X0043140Y0029136D02*
X0046160Y0029136D01*
X0046160Y0029627D02*
X0043140Y0029627D01*
X0043140Y0030118D02*
X0046160Y0030118D01*
X0046160Y0030609D02*
X0043140Y0030609D01*
X0043140Y0031100D02*
X0046160Y0031100D01*
X0046160Y0031591D02*
X0043140Y0031591D01*
X0046160Y0027179D02*
X0046160Y0023429D01*
X0043140Y0023429D01*
X0043140Y0027179D01*
X0046160Y0027179D01*
X0046160Y0023920D02*
X0043140Y0023920D01*
X0043140Y0024411D02*
X0046160Y0024411D01*
X0046160Y0024902D02*
X0043140Y0024902D01*
X0043140Y0025393D02*
X0046160Y0025393D01*
X0046160Y0025884D02*
X0043140Y0025884D01*
X0043140Y0026375D02*
X0046160Y0026375D01*
X0046160Y0026866D02*
X0043140Y0026866D01*
D13*
X0035655Y0041512D02*
X0035655Y0044222D01*
X0035655Y0041512D02*
X0035445Y0041512D01*
X0035445Y0044222D01*
X0035655Y0044222D01*
X0035655Y0043401D02*
X0035445Y0043401D01*
X0033155Y0044222D02*
X0033155Y0041512D01*
X0032945Y0041512D01*
X0032945Y0044222D01*
X0033155Y0044222D01*
X0033155Y0043401D02*
X0032945Y0043401D01*
X0030655Y0044222D02*
X0030655Y0041512D01*
X0030445Y0041512D01*
X0030445Y0044222D01*
X0030655Y0044222D01*
X0030655Y0043401D02*
X0030445Y0043401D01*
X0028155Y0044222D02*
X0028155Y0041512D01*
X0027945Y0041512D01*
X0027945Y0044222D01*
X0028155Y0044222D01*
X0028155Y0043401D02*
X0027945Y0043401D01*
X0025655Y0044222D02*
X0025655Y0041512D01*
X0025445Y0041512D01*
X0025445Y0044222D01*
X0025655Y0044222D01*
X0025655Y0043401D02*
X0025445Y0043401D01*
X0023155Y0044222D02*
X0023155Y0041512D01*
X0022945Y0041512D01*
X0022945Y0044222D01*
X0023155Y0044222D01*
X0023155Y0043401D02*
X0022945Y0043401D01*
X0020655Y0044222D02*
X0020655Y0041512D01*
X0020445Y0041512D01*
X0020445Y0044222D01*
X0020655Y0044222D01*
X0020655Y0043401D02*
X0020445Y0043401D01*
X0018155Y0044222D02*
X0018155Y0041512D01*
X0017945Y0041512D01*
X0017945Y0044222D01*
X0018155Y0044222D01*
X0018155Y0043401D02*
X0017945Y0043401D01*
X0018155Y0046512D02*
X0018155Y0049222D01*
X0018155Y0046512D02*
X0017945Y0046512D01*
X0017945Y0049222D01*
X0018155Y0049222D01*
X0018155Y0048401D02*
X0017945Y0048401D01*
X0015655Y0049222D02*
X0015655Y0046512D01*
X0015445Y0046512D01*
X0015445Y0049222D01*
X0015655Y0049222D01*
X0015655Y0048401D02*
X0015445Y0048401D01*
X0020655Y0049222D02*
X0020655Y0046512D01*
X0020445Y0046512D01*
X0020445Y0049222D01*
X0020655Y0049222D01*
X0020655Y0048401D02*
X0020445Y0048401D01*
X0023155Y0049222D02*
X0023155Y0046512D01*
X0022945Y0046512D01*
X0022945Y0049222D01*
X0023155Y0049222D01*
X0023155Y0048401D02*
X0022945Y0048401D01*
X0025655Y0049222D02*
X0025655Y0046512D01*
X0025445Y0046512D01*
X0025445Y0049222D01*
X0025655Y0049222D01*
X0025655Y0048401D02*
X0025445Y0048401D01*
X0028155Y0049222D02*
X0028155Y0046512D01*
X0027945Y0046512D01*
X0027945Y0049222D01*
X0028155Y0049222D01*
X0028155Y0048401D02*
X0027945Y0048401D01*
X0030655Y0049222D02*
X0030655Y0046512D01*
X0030445Y0046512D01*
X0030445Y0049222D01*
X0030655Y0049222D01*
X0030655Y0048401D02*
X0030445Y0048401D01*
X0033155Y0049222D02*
X0033155Y0046512D01*
X0032945Y0046512D01*
X0032945Y0049222D01*
X0033155Y0049222D01*
X0033155Y0048401D02*
X0032945Y0048401D01*
X0035655Y0049222D02*
X0035655Y0046512D01*
X0035445Y0046512D01*
X0035445Y0049222D01*
X0035655Y0049222D01*
X0035655Y0048401D02*
X0035445Y0048401D01*
X0038155Y0049222D02*
X0038155Y0046512D01*
X0037945Y0046512D01*
X0037945Y0049222D01*
X0038155Y0049222D01*
X0038155Y0048401D02*
X0037945Y0048401D01*
D14*
X0037923Y0044034D03*
X0046650Y0036967D03*
X0047788Y0028229D03*
X0043150Y0020467D03*
X0038818Y0023993D03*
X0030450Y0055583D03*
X0028450Y0056883D03*
X0026250Y0055967D03*
X0024050Y0056867D03*
X0021950Y0055867D03*
X0019950Y0056667D03*
X0017750Y0055567D03*
X0015250Y0055967D03*
X0012650Y0055267D03*
X0011050Y0052167D03*
X0007850Y0031367D03*
X0032740Y0056867D03*
X0035171Y0056057D03*
X0037750Y0056767D03*
D15*
X0040250Y0056667D03*
X0042550Y0055567D03*
X0018912Y0028642D03*
X0010550Y0020867D03*
X0020050Y0016867D03*
X0020550Y0013367D03*
X0021050Y0010867D03*
X0025050Y0012367D03*
X0026450Y0014567D03*
X0027550Y0016967D03*
X0030050Y0016367D03*
X0033050Y0011367D03*
D16*
X0038750Y0015467D03*
X0042550Y0011367D03*
X0005450Y0031367D03*
X0005050Y0026967D03*
M02*
